<?xml version="1.0" encoding="utf-8"?>
<!-- Generator: Adobe Illustrator 27.1.1, SVG Export Plug-In . SVG Version: 6.00 Build 0)  -->
<svg version="1.1" id="_x32_" xmlns="http://www.w3.org/2000/svg" xmlns:xlink="http://www.w3.org/1999/xlink" x="0px" y="0px"
	 viewBox="0 0 800 800" style="enable-background:new 0 0 800 800;" xml:space="preserve">
<style type="text/css">
	.st0{fill:#FFFFFF;stroke:#FFFFFF;stroke-width:16;stroke-miterlimit:6.25;}
</style>
<g id="SVGRepo_iconCarrier_00000001623670608656240720000013010206038014476208_">
	<g>
		<path class="st0" d="M644,260.5c-2-10.3-6.6-20-13.3-28.2c-1.4-1.7-2.8-3.2-4.3-4.8c-11.9-12-28.5-18.9-45.5-18.9H219.2
			c-17.2,0-33.4,6.7-45.5,18.9c-1.5,1.5-3,3.1-4.4,4.9c-6.7,8.2-11.3,17.9-13.2,28.2c-0.8,4.1-1.3,8.2-1.3,12.5v254
			c0,8.8,1.8,17.4,5.4,25.6c3.1,7.3,7.8,14.2,13.5,19.9c1.5,1.4,2.9,2.8,4.4,4.1c11.5,9.5,26.1,14.8,41.1,14.8h361.6
			c15.1,0,29.7-5.3,41.2-14.9c1.5-1.2,3-2.5,4.4-4c5.6-5.6,10-12,13.2-19l0.4-1c3.5-8,5.3-16.6,5.3-25.5V273
			C645.2,268.8,644.8,264.6,644,260.5z M188.1,249.7c0.9-1.3,2.1-2.7,3.6-4.2c7.4-7.4,17.1-11.4,27.5-11.4h361.6
			c10.5,0,20.2,4.1,27.5,11.4c1.3,1.3,2.5,2.7,3.5,4.1l2.8,3.7l-193,168.2c-6,5.2-13.6,8.1-21.6,8.1c-7.9,0-15.5-2.9-21.6-8.1
			L185.6,253.4L188.1,249.7z M180.4,529.2c-0.1-0.7-0.1-1.5-0.1-2.2V278.3l149.8,130.7L181.8,538.2L180.4,529.2z M600.1,560.8
			c-5.8,3.3-12.5,5.1-19.3,5.1H219.2c-6.8,0-13.5-1.8-19.3-5.1l-6.1-3.5L347,423.7l16.8,14.6c10.1,8.7,22.9,13.6,36.2,13.6
			c13.3,0,26.2-4.8,36.2-13.6l16.8-14.6l153.2,133.5L600.1,560.8z M619.7,527c0,0.8,0,1.5-0.1,2.2l-1.3,9.1L469.9,409l149.8-130.7
			V527z"/>
	</g>
</g>
</svg>
