<?xml version="1.0" encoding="utf-8"?>
<!-- Generator: Adobe Illustrator 27.1.1, SVG Export Plug-In . SVG Version: 6.00 Build 0)  -->
<svg version="1.1" id="Layer_1" xmlns="http://www.w3.org/2000/svg" xmlns:xlink="http://www.w3.org/1999/xlink" x="0px" y="0px"
	 viewBox="0 0 448 512" style="enable-background:new 0 0 448 512;" xml:space="preserve">
<style type="text/css">
	.st0{fill:#FFFFFF;}
	.st1{fill:#231F20;}
</style>
<g>
	<g>
		<g>
			<path class="st0" d="M222,97.3c-43.9,0-84.5,16.3-114.2,45.9c-29.8,29.7-46.2,70.2-46.2,114c0,71.4,44.6,134.2,111,156.5
				c0.4,0.1,0.9,0.3,1.3,0.3c7.8,1.4,12.9-1.2,15.7-3.6c3.8-3.1,5.9-7.9,5.9-13.1c0-1.4,0-4.9,0-9.4c-0.1-8.5-0.1-20.1-0.1-28.5
				c0-2.8-1.3-5.4-3.4-7.2c0.2-0.3,0.5-0.6,0.6-0.9c1.6-2.4,2.1-5.3,1.6-8.1c0,0,0-0.1,0-0.2c0.8-1.2,1.3-2.5,1.5-3.9
				c0.9-6.6,3.4-12.1,6.9-15.2c2.7-2.5,3.8-6.3,2.7-9.8c-1.1-3.5-4.2-6-7.8-6.4c-32.7-3.6-61-6.8-61-58.9c0-14.4,3.6-20.7,12.1-30.1
				c2.4-2.7,3.1-6.5,1.7-9.8c-0.6-1.4-5-13-0.3-29.4c6.9,1.5,19.7,7.7,30.5,15.3c2.3,1.6,5.2,2.1,7.9,1.3
				c11.4-3.2,23.9-4.9,36.3-4.9s24.9,1.7,36.3,4.9c2.7,0.8,5.6,0.3,7.9-1.3c10.9-7.6,23.6-13.8,30.5-15.3
				c4.5,15.8,0.6,27.1-0.3,29.5c-1.3,3.3-0.6,7.1,1.8,9.7c9.2,10.1,13.5,16.4,13.5,30.1c0,52-29,55.2-62.6,58.9
				c-3.7,0.4-6.8,3-7.9,6.5c-1.1,3.6,0,7.4,2.9,9.8c2.2,1.9,7.3,7.7,7.3,21.5c0,13.9-0.1,30-0.1,40.7c0,5.3-0.1,9.2-0.1,10.9
				c0,5.1,2.2,9.9,6,13.1c2.3,1.9,6,4,11.4,4c1.3,0,2.8-0.1,4.3-0.4c0.4-0.1,0.9-0.2,1.3-0.3c65.7-21.9,109.7-84.8,109.6-156.5
				C386.3,167.6,314.1,97.3,222,97.3z M268.8,324.7c30.6-4.6,64.1-16.8,64.1-75.6c0-18.2-6.4-28.8-14.8-38.6
				c2.2-8.6,4.1-24.2-3.4-43.2c-1-2.6-3.2-4.6-5.9-5.5c-14.1-4.4-36.6,8.6-47.1,15.5c-11.8-2.9-24.5-4.5-37.1-4.5
				s-25.3,1.5-37.1,4.5c-10.5-6.9-33-19.9-47.1-15.5c-2.7,0.8-4.9,2.8-5.9,5.5c-7.6,19.1-5.5,34.9-3.4,43.2
				c-8.5,10.4-13.4,20.9-13.4,38.5c0,58.8,32.7,71,62.7,75.6c-0.8,2.1-1.5,4.3-2.1,6.6c-9.5,3.2-21,2.9-28.8-10.8
				c-10.8-18.8-30.3-20.5-31.1-20.6c-0.2,0-0.4,0-0.6,0c-8.7-0.1-14.1,2.8-15.9,8.6c-1.9,6,1.4,12.4,9.5,18c0.4,0.3,0.9,0.6,1.4,0.8
				c4.5,2.1,9.9,11.5,12.3,17.3c5,14.7,18.2,23.8,37.4,25.7c5.2,0.5,10.2,0.4,14.3,0.1c0,6.2,0.1,12.7,0.1,18c0,3,0,5.6,0,7.4
				c-57.9-20.1-96.7-75.5-96.7-138.3c0-80.6,61-141.3,141.8-141.3c81.7,0,145.7,62.1,145.7,141.3c0.1,63.1-38.2,118.4-95.3,138.2
				c0-2,0-5.1,0-8.8c0.1-10.7,0.1-26.9,0.1-40.8C272.5,337.1,270.9,330.1,268.8,324.7z M185,345.4C185,345.4,185,345.5,185,345.4
				c0,1.1-0.9,2-2.4,2.4c-0.1,0-0.2,0.1-0.3,0.1c0,0-0.1,0-0.1,0c-0.1,0-0.2,0-0.4,0c-1.6,0.2-3.1-0.5-3.3-1.6c-0.2-1.4,1-2.6,2.8-3
				c0.2,0,0.4,0,0.7,0c1.5,0,2.8,0.7,3,1.8C185,345.3,185,345.3,185,345.4z M169.3,344.9c0.2,0,0.4,0,0.6,0c0,0,0.1,0,0.1,0
				c1.7-0.1,3.4,0.9,3.4,2.2c0,1.2-1.4,2.2-3.3,2.2c-0.1,0-0.2,0-0.4,0c-0.1-0.2-0.1-0.5-0.2-0.7c0,0.2-0.1,0.3-0.1,0.5
				c0,0.1,0,0.1-0.1,0.2c-1.6-0.1-2.7-1-2.7-2.2C166.6,346.1,167.7,345.1,169.3,344.9z M145.3,340.7c-0.1,0-0.1-0.1-0.2-0.2
				c-1.4-1.2-1.8-3-0.8-3.8c0.8-1,2.4-0.9,3.8,0.3c0.1,0.1,0.2,0.1,0.2,0.2c0.1,0.1,0.2,0.2,0.3,0.4c1,1.2,1.2,2.8,0.5,3.4
				c-0.8,0.9-2.3,0.9-3.6-0.2c0-0.2,0.1-0.3,0.2-0.4C145.5,340.5,145.4,340.6,145.3,340.7z M160.6,346.1c-0.3,1.1-1.8,1.6-3.3,1.4
				c-0.1,0-0.3,0-0.4-0.1c-0.1,0-0.1,0-0.2-0.1c0,0-0.1,0-0.1,0c-0.2,0-0.3-0.1-0.5-0.1c-1.5-0.5-2.4-1.8-2-2.8
				c0.4-1.2,2.2-1.8,3.8-1.4c0.1,0,0.1,0,0.2,0c0.1,0,0.2,0.1,0.3,0.1C160,343.7,161,345,160.6,346.1z M140.6,328.7
				c0.3,0.4,0.5,0.9,0.6,1.3c0.3,1,0.1,2-0.6,2.5c-0.6,0.4-1.5,0.2-2.4-0.4h0c-0.4-0.3-0.7-0.6-1.1-1c-0.1-0.1-0.1-0.2-0.2-0.3
				c-0.8-1.2-0.7-2.6,0-3.2c0,0,0.1-0.1,0.2-0.1c0,0,0.1,0,0.1,0c0.9-0.6,2.1-0.3,2.9,0.7C140.3,328.3,140.5,328.5,140.6,328.7z
				 M131.3,323c0,0-0.1-0.1-0.1-0.2c-0.3-0.4-0.6-0.9-0.7-1.3c0-0.2-0.1-0.3-0.1-0.4c-0.1-0.6,0.1-1,0.5-1.4
				c0.2-0.1,0.3-0.2,0.5-0.3c0.4-0.1,0.8-0.1,1.2,0c0.5,0.1,0.9,0.4,1.3,0.7c0.1,0.1,0.1,0.1,0.2,0.2c0,0,0.1,0.1,0.1,0.1
				c0.9,1.2,1.1,2.5,0.2,3.1c-0.8,0.8-2,0.4-3-0.3C131.5,323.1,131.4,323,131.3,323z M125.8,317.1c0,0-0.1,0-0.1-0.1
				c-0.1,0-0.2-0.1-0.2-0.1c-1.1-0.6-1.5-1.5-1.2-2.3c0.4-0.6,1.4-0.8,2.6-0.4c1.1,0.6,1.7,1.5,1.5,2.2c0,0.1,0,0.2-0.1,0.2
				c0,0.1-0.1,0.2-0.2,0.3c0,0.1-0.1,0.1-0.2,0.2c-0.1,0.1-0.2,0.1-0.3,0.2C127.2,317.5,126.5,317.4,125.8,317.1z M184.1,350.5
				c0,0-0.5,0.1-1.2,0.2l-0.3-1.3c1.7-0.5,3.4-1.1,5.1-1.8c-0.2,1-0.6,1.9-1.2,2.7C185.7,350.3,184.9,350.3,184.1,350.5z M222,97.3
				c-43.9,0-84.5,16.3-114.2,45.9c-29.8,29.7-46.2,70.2-46.2,114c0,71.4,44.6,134.2,111,156.5c0.4,0.1,0.9,0.3,1.3,0.3
				c7.8,1.4,12.9-1.2,15.7-3.6c3.8-3.1,5.9-7.9,5.9-13.1c0-1.4,0-4.9,0-9.4c-0.1-8.5-0.1-20.1-0.1-28.5c0-2.8-1.3-5.4-3.4-7.2
				c0.2-0.3,0.5-0.6,0.6-0.9c1.6-2.4,2.1-5.3,1.6-8.1c0,0,0-0.1,0-0.2c0.8-1.2,1.3-2.5,1.5-3.9c0.9-6.6,3.4-12.1,6.9-15.2
				c2.7-2.5,3.8-6.3,2.7-9.8c-1.1-3.5-4.2-6-7.8-6.4c-32.7-3.6-61-6.8-61-58.9c0-14.4,3.6-20.7,12.1-30.1c2.4-2.7,3.1-6.5,1.7-9.8
				c-0.6-1.4-5-13-0.3-29.4c6.9,1.5,19.7,7.7,30.5,15.3c2.3,1.6,5.2,2.1,7.9,1.3c11.4-3.2,23.9-4.9,36.3-4.9s24.9,1.7,36.3,4.9
				c2.7,0.8,5.6,0.3,7.9-1.3c10.9-7.6,23.6-13.8,30.5-15.3c4.5,15.8,0.6,27.1-0.3,29.5c-1.3,3.3-0.6,7.1,1.8,9.7
				c9.2,10.1,13.5,16.4,13.5,30.1c0,52-29,55.2-62.6,58.9c-3.7,0.4-6.8,3-7.9,6.5c-1.1,3.6,0,7.4,2.9,9.8c2.2,1.9,7.3,7.7,7.3,21.5
				c0,13.9-0.1,30-0.1,40.7c0,5.3-0.1,9.2-0.1,10.9c0,5.1,2.2,9.9,6,13.1c2.3,1.9,6,4,11.4,4c1.3,0,2.8-0.1,4.3-0.4
				c0.4-0.1,0.9-0.2,1.3-0.3c65.7-21.9,109.7-84.8,109.6-156.5C386.3,167.6,314.1,97.3,222,97.3z M268.8,324.7
				c30.6-4.6,64.1-16.8,64.1-75.6c0-18.2-6.4-28.8-14.8-38.6c2.2-8.6,4.1-24.2-3.4-43.2c-1-2.6-3.2-4.6-5.9-5.5
				c-14.1-4.4-36.6,8.6-47.1,15.5c-11.8-2.9-24.5-4.5-37.1-4.5s-25.3,1.5-37.1,4.5c-10.5-6.9-33-19.9-47.1-15.5
				c-2.7,0.8-4.9,2.8-5.9,5.5c-7.6,19.1-5.5,34.9-3.4,43.2c-8.5,10.4-13.4,20.9-13.4,38.5c0,58.8,32.7,71,62.7,75.6
				c-0.8,2.1-1.5,4.3-2.1,6.6c-9.5,3.2-21,2.9-28.8-10.8c-10.8-18.8-30.3-20.5-31.1-20.6c-0.2,0-0.4,0-0.6,0
				c-8.7-0.1-14.1,2.8-15.9,8.6c-1.9,6,1.4,12.4,9.5,18c0.4,0.3,0.9,0.6,1.4,0.8c4.5,2.1,9.9,11.5,12.3,17.3
				c5,14.7,18.2,23.8,37.4,25.7c5.2,0.5,10.2,0.4,14.3,0.1c0,6.2,0.1,12.7,0.1,18c0,3,0,5.6,0,7.4c-57.9-20.1-96.7-75.5-96.7-138.3
				c0-80.6,61-141.3,141.8-141.3c81.7,0,145.7,62.1,145.7,141.3c0.1,63.1-38.2,118.4-95.3,138.2c0-2,0-5.1,0-8.8
				c0.1-10.7,0.1-26.9,0.1-40.8C272.5,337.1,270.9,330.1,268.8,324.7z M185,345.4C185,345.4,185,345.5,185,345.4
				c0,1.1-0.9,2-2.4,2.4c-0.1,0-0.2,0.1-0.3,0.1c0,0-0.1,0-0.1,0c-0.1,0-0.2,0-0.4,0c-1.6,0.2-3.1-0.5-3.3-1.6c-0.2-1.4,1-2.6,2.8-3
				c0.2,0,0.4,0,0.7,0c1.5,0,2.8,0.7,3,1.8C185,345.3,185,345.3,185,345.4z M169.3,344.9c0.2,0,0.4,0,0.6,0c0,0,0.1,0,0.1,0
				c1.7-0.1,3.4,0.9,3.4,2.2c0,1.2-1.4,2.2-3.3,2.2c-0.1,0-0.2,0-0.4,0c-0.1-0.2-0.1-0.5-0.2-0.7c0,0.2-0.1,0.3-0.1,0.5
				c0,0.1,0,0.1-0.1,0.2c-1.6-0.1-2.7-1-2.7-2.2C166.6,346.1,167.7,345.1,169.3,344.9z M145.3,340.7c-0.1,0-0.1-0.1-0.2-0.2
				c-1.4-1.2-1.8-3-0.8-3.8c0.8-1,2.4-0.9,3.8,0.3c0.1,0.1,0.2,0.1,0.2,0.2c0.1,0.1,0.2,0.2,0.3,0.4c1,1.2,1.2,2.8,0.5,3.4
				c-0.8,0.9-2.3,0.9-3.6-0.2c0-0.2,0.1-0.3,0.2-0.4C145.5,340.5,145.4,340.6,145.3,340.7z M160.6,346.1c-0.3,1.1-1.8,1.6-3.3,1.4
				c-0.1,0-0.3,0-0.4-0.1c-0.1,0-0.1,0-0.2-0.1c0,0-0.1,0-0.1,0c-0.2,0-0.3-0.1-0.5-0.1c-1.5-0.5-2.4-1.8-2-2.8
				c0.4-1.2,2.2-1.8,3.8-1.4c0.1,0,0.1,0,0.2,0c0.1,0,0.2,0.1,0.3,0.1C160,343.7,161,345,160.6,346.1z M140.6,328.7
				c0.3,0.4,0.5,0.9,0.6,1.3c0.3,1,0.1,2-0.6,2.5c-0.6,0.4-1.5,0.2-2.4-0.4h0c-0.4-0.3-0.7-0.6-1.1-1c-0.1-0.1-0.1-0.2-0.2-0.3
				c-0.8-1.2-0.7-2.6,0-3.2c0,0,0.1-0.1,0.2-0.1c0,0,0.1,0,0.1,0c0.9-0.6,2.1-0.3,2.9,0.7C140.3,328.3,140.5,328.5,140.6,328.7z
				 M131.3,323c0,0-0.1-0.1-0.1-0.2c-0.3-0.4-0.6-0.9-0.7-1.3c0-0.2-0.1-0.3-0.1-0.4c-0.1-0.6,0.1-1,0.5-1.4
				c0.2-0.1,0.3-0.2,0.5-0.3c0.4-0.1,0.8-0.1,1.2,0c0.5,0.1,0.9,0.4,1.3,0.7c0.1,0.1,0.1,0.1,0.2,0.2c0,0,0.1,0.1,0.1,0.1
				c0.9,1.2,1.1,2.5,0.2,3.1c-0.8,0.8-2,0.4-3-0.3C131.5,323.1,131.4,323,131.3,323z M125.8,317.1c0,0-0.1,0-0.1-0.1
				c-0.1,0-0.2-0.1-0.2-0.1c-1.1-0.6-1.5-1.5-1.2-2.3c0.4-0.6,1.4-0.8,2.6-0.4c1.1,0.6,1.7,1.5,1.5,2.2c0,0.1,0,0.2-0.1,0.2
				c0,0.1-0.1,0.2-0.2,0.3c0,0.1-0.1,0.1-0.2,0.2c-0.1,0.1-0.2,0.1-0.3,0.2C127.2,317.5,126.5,317.4,125.8,317.1z M184.1,350.5
				c0,0-0.5,0.1-1.2,0.2l-0.3-1.3c1.7-0.5,3.4-1.1,5.1-1.8c-0.2,1-0.6,1.9-1.2,2.7C185.7,350.3,184.9,350.3,184.1,350.5z
				 M388.2,47.1H59.8c-24.7,0-44.8,20.1-44.8,44.8v328.3c0,24.7,20,44.8,44.8,44.8h328.3c24.7,0,44.8-20.1,44.8-44.8V91.8
				C432.9,67.1,412.9,47.1,388.2,47.1z M423.6,420.2c0,19.5-15.9,35.4-35.4,35.4H59.8c-19.5,0-35.4-15.9-35.4-35.4V91.8
				c0-19.5,15.9-35.4,35.4-35.4h328.3c19.5,0,35.4,15.9,35.4,35.4V420.2z M222,97.3c-43.9,0-84.5,16.3-114.2,45.9
				c-29.8,29.7-46.2,70.2-46.2,114c0,71.4,44.6,134.2,111,156.5c0.4,0.1,0.9,0.3,1.3,0.3c7.8,1.4,12.9-1.2,15.7-3.6
				c3.8-3.1,5.9-7.9,5.9-13.1c0-1.4,0-4.9,0-9.4c-0.1-8.5-0.1-20.1-0.1-28.5c0-2.8-1.3-5.4-3.4-7.2c0.2-0.3,0.5-0.6,0.6-0.9
				c1.6-2.4,2.1-5.3,1.6-8.1c0,0,0-0.1,0-0.2c0.8-1.2,1.3-2.5,1.5-3.9c0.9-6.6,3.4-12.1,6.9-15.2c2.7-2.5,3.8-6.3,2.7-9.8
				c-1.1-3.5-4.2-6-7.8-6.4c-32.7-3.6-61-6.8-61-58.9c0-14.4,3.6-20.7,12.1-30.1c2.4-2.7,3.1-6.5,1.7-9.8c-0.6-1.4-5-13-0.3-29.4
				c6.9,1.5,19.7,7.7,30.5,15.3c2.3,1.6,5.2,2.1,7.9,1.3c11.4-3.2,23.9-4.9,36.3-4.9s24.9,1.7,36.3,4.9c2.7,0.8,5.6,0.3,7.9-1.3
				c10.9-7.6,23.6-13.8,30.5-15.3c4.5,15.8,0.6,27.1-0.3,29.5c-1.3,3.3-0.6,7.1,1.8,9.7c9.2,10.1,13.5,16.4,13.5,30.1
				c0,52-29,55.2-62.6,58.9c-3.7,0.4-6.8,3-7.9,6.5c-1.1,3.6,0,7.4,2.9,9.8c2.2,1.9,7.3,7.7,7.3,21.5c0,13.9-0.1,30-0.1,40.7
				c0,5.3-0.1,9.2-0.1,10.9c0,5.1,2.2,9.9,6,13.1c2.3,1.9,6,4,11.4,4c1.3,0,2.8-0.1,4.3-0.4c0.4-0.1,0.9-0.2,1.3-0.3
				c65.7-21.9,109.7-84.8,109.6-156.5C386.3,167.6,314.1,97.3,222,97.3z M268.8,324.7c30.6-4.6,64.1-16.8,64.1-75.6
				c0-18.2-6.4-28.8-14.8-38.6c2.2-8.6,4.1-24.2-3.4-43.2c-1-2.6-3.2-4.6-5.9-5.5c-14.1-4.4-36.6,8.6-47.1,15.5
				c-11.8-2.9-24.5-4.5-37.1-4.5s-25.3,1.5-37.1,4.5c-10.5-6.9-33-19.9-47.1-15.5c-2.7,0.8-4.9,2.8-5.9,5.5
				c-7.6,19.1-5.5,34.9-3.4,43.2c-8.5,10.4-13.4,20.9-13.4,38.5c0,58.8,32.7,71,62.7,75.6c-0.8,2.1-1.5,4.3-2.1,6.6
				c-9.5,3.2-21,2.9-28.8-10.8c-10.8-18.8-30.3-20.5-31.1-20.6c-0.2,0-0.4,0-0.6,0c-8.7-0.1-14.1,2.8-15.9,8.6
				c-1.9,6,1.4,12.4,9.5,18c0.4,0.3,0.9,0.6,1.4,0.8c4.5,2.1,9.9,11.5,12.3,17.3c5,14.7,18.2,23.8,37.4,25.7
				c5.2,0.5,10.2,0.4,14.3,0.1c0,6.2,0.1,12.7,0.1,18c0,3,0,5.6,0,7.4c-57.9-20.1-96.7-75.5-96.7-138.3c0-80.6,61-141.3,141.8-141.3
				c81.7,0,145.7,62.1,145.7,141.3c0.1,63.1-38.2,118.4-95.3,138.2c0-2,0-5.1,0-8.8c0.1-10.7,0.1-26.9,0.1-40.8
				C272.5,337.1,270.9,330.1,268.8,324.7z M185,345.4C185,345.4,185,345.5,185,345.4c0,1.1-0.9,2-2.4,2.4c-0.1,0-0.2,0.1-0.3,0.1
				c0,0-0.1,0-0.1,0c-0.1,0-0.2,0-0.4,0c-1.6,0.2-3.1-0.5-3.3-1.6c-0.2-1.4,1-2.6,2.8-3c0.2,0,0.4,0,0.7,0c1.5,0,2.8,0.7,3,1.8
				C185,345.3,185,345.3,185,345.4z M169.3,344.9c0.2,0,0.4,0,0.6,0c0,0,0.1,0,0.1,0c1.7-0.1,3.4,0.9,3.4,2.2c0,1.2-1.4,2.2-3.3,2.2
				c-0.1,0-0.2,0-0.4,0c-0.1-0.2-0.1-0.5-0.2-0.7c0,0.2-0.1,0.3-0.1,0.5c0,0.1,0,0.1-0.1,0.2c-1.6-0.1-2.7-1-2.7-2.2
				C166.6,346.1,167.7,345.1,169.3,344.9z M145.3,340.7c-0.1,0-0.1-0.1-0.2-0.2c-1.4-1.2-1.8-3-0.8-3.8c0.8-1,2.4-0.9,3.8,0.3
				c0.1,0.1,0.2,0.1,0.2,0.2c0.1,0.1,0.2,0.2,0.3,0.4c1,1.2,1.2,2.8,0.5,3.4c-0.8,0.9-2.3,0.9-3.6-0.2c0-0.2,0.1-0.3,0.2-0.4
				C145.5,340.5,145.4,340.6,145.3,340.7z M160.6,346.1c-0.3,1.1-1.8,1.6-3.3,1.4c-0.1,0-0.3,0-0.4-0.1c-0.1,0-0.1,0-0.2-0.1
				c0,0-0.1,0-0.1,0c-0.2,0-0.3-0.1-0.5-0.1c-1.5-0.5-2.4-1.8-2-2.8c0.4-1.2,2.2-1.8,3.8-1.4c0.1,0,0.1,0,0.2,0
				c0.1,0,0.2,0.1,0.3,0.1C160,343.7,161,345,160.6,346.1z M140.6,328.7c0.3,0.4,0.5,0.9,0.6,1.3c0.3,1,0.1,2-0.6,2.5
				c-0.6,0.4-1.5,0.2-2.4-0.4h0c-0.4-0.3-0.7-0.6-1.1-1c-0.1-0.1-0.1-0.2-0.2-0.3c-0.8-1.2-0.7-2.6,0-3.2c0,0,0.1-0.1,0.2-0.1
				c0,0,0.1,0,0.1,0c0.9-0.6,2.1-0.3,2.9,0.7C140.3,328.3,140.5,328.5,140.6,328.7z M131.3,323c0,0-0.1-0.1-0.1-0.2
				c-0.3-0.4-0.6-0.9-0.7-1.3c0-0.2-0.1-0.3-0.1-0.4c-0.1-0.6,0.1-1,0.5-1.4c0.2-0.1,0.3-0.2,0.5-0.3c0.4-0.1,0.8-0.1,1.2,0
				c0.5,0.1,0.9,0.4,1.3,0.7c0.1,0.1,0.1,0.1,0.2,0.2c0,0,0.1,0.1,0.1,0.1c0.9,1.2,1.1,2.5,0.2,3.1c-0.8,0.8-2,0.4-3-0.3
				C131.5,323.1,131.4,323,131.3,323z M125.8,317.1c0,0-0.1,0-0.1-0.1c-0.1,0-0.2-0.1-0.2-0.1c-1.1-0.6-1.5-1.5-1.2-2.3
				c0.4-0.6,1.4-0.8,2.6-0.4c1.1,0.6,1.7,1.5,1.5,2.2c0,0.1,0,0.2-0.1,0.2c0,0.1-0.1,0.2-0.2,0.3c0,0.1-0.1,0.1-0.2,0.2
				c-0.1,0.1-0.2,0.1-0.3,0.2C127.2,317.5,126.5,317.4,125.8,317.1z M184.1,350.5c0,0-0.5,0.1-1.2,0.2l-0.3-1.3
				c1.7-0.5,3.4-1.1,5.1-1.8c-0.2,1-0.6,1.9-1.2,2.7C185.7,350.3,184.9,350.3,184.1,350.5z"/>
			<path class="st0" d="M388.2,37.7H59.8C30,37.7,5.7,62,5.7,91.8v328.3c0,29.8,24.3,54.1,54.1,54.1h328.3
				c29.8,0,54.1-24.3,54.1-54.1V91.8C442.3,62,418,37.7,388.2,37.7z M423.6,420.2c0,19.5-15.9,35.4-35.4,35.4H59.8
				c-19.5,0-35.4-15.9-35.4-35.4V91.8c0-19.5,15.9-35.4,35.4-35.4h328.3c19.5,0,35.4,15.9,35.4,35.4V420.2z"/>
		</g>
		<g>
			<path class="st0" d="M222,106.7c-85.6,0-151.1,65-151.1,150.6c0,68.5,43.1,127,104.7,147.6c7.9,1.4,10.7-3.5,10.7-7.5
				c0-3.8-0.2-24.9-0.2-37.9c0,0-43.3,9.3-52.3-18.4c0,0-0.2-0.4-0.5-1.2c-0.7-1.5-2-4.4-3.8-7.5c-0.7-1.2-1.5-2.5-2.3-3.7
				c-0.5-0.7-1-1.5-1.6-2.2c-1.3-1.8-2.8-3.4-4.4-4.8v0c-1.4-1.3-3-2.3-4.5-3.1c0,0-0.6-0.4-1.4-1c-3.1-2.4-9.3-8.3,1.5-8.5
				c0.3,0,0.6,0,0.9,0c0,0,1.7,0.1,4.3,0.9c1.3,0.4,2.8,0.9,4.4,1.6c1.8,0.8,3.8,1.8,5.7,3.2c0.5,0.3,1,0.7,1.5,1.1
				c0.8,0.6,1.6,1.3,2.4,2.1c0,0,0.1,0.1,0.1,0.1c0.2,0.2,0.3,0.3,0.5,0.5c0.3,0.3,0.5,0.5,0.8,0.8c0.8,0.9,1.6,1.8,2.4,2.9
				c0.3,0.4,0.5,0.8,0.8,1.2c0.3,0.5,0.7,1.1,1,1.6c0.4,0.7,0.8,1.4,1.2,2c0,0,0,0.1,0.1,0.1c0,0.1,0.1,0.1,0.1,0.2
				c0.1,0.1,0.1,0.2,0.2,0.3c0.8,1.2,1.6,2.3,2.5,3.3c0.4,0.5,0.8,0.9,1.2,1.4c1,1.1,2.1,2.2,3.2,3.1c0,0,0,0,0.1,0
				c1.1,0.9,2.1,1.7,3.2,2.3c0.7,0.4,1.3,0.8,2,1.2c1.2,0.6,2.5,1.2,3.8,1.6c0.2,0.1,0.3,0.1,0.5,0.2c1.1,0.4,2.3,0.6,3.4,0.8
				c1.1,0.2,2.1,0.4,3.2,0.4c1.2,0.1,2.4,0.1,3.5,0.1c0,0,0.1,0,0.1,0c0.1,0,0.2,0,0.3,0h0c0.3,0,0.6,0,1,0c0.3,0,0.5,0,0.8-0.1
				c0,0,0.1,0,0.2,0c0.6-0.1,1.2-0.1,1.8-0.2c0.1,0,0.2,0,0.2,0c0.3,0,0.5-0.1,0.8-0.1c0.2,0,0.5-0.1,0.7-0.1c0.3,0,0.6-0.1,0.8-0.2
				c0.3-0.1,0.5-0.1,0.8-0.2c1.2-0.2,2.3-0.5,3.3-0.9c1.2-0.3,2.2-0.7,3.2-1.1c1-0.4,2-0.8,2.8-1.2c0.2-1.1,0.3-2.1,0.6-3.1
				c1.7-8.2,5.3-14.1,9.3-17.7c-34.5-3.8-69.3-8.9-69.3-68.2c0-17,4.7-25.5,14.5-36.4c-1.7-4.1-6.9-20.6,1.6-42
				c13-4,42.6,16.7,42.6,16.7c12.3-3.5,25.6-5.2,38.8-5.2s26.5,1.8,38.8,5.2c0,0,29.7-20.7,42.6-16.7c8.5,21.5,3.2,38,1.6,42
				c9.9,10.9,16,19.4,16,36.4c0,59.6-36.4,64.4-70.9,68.2c5.7,4.8,10.5,14.1,10.5,28.6c0,20.8-0.2,46.5-0.2,51.6
				c0,4,2.9,8.9,10.7,7.5c61.6-20.5,103.3-79.2,103.3-147.6C377,171.7,307.6,106.7,222,106.7z M272.3,395.6c0-2,0-5.1,0-8.8
				c0.1-10.7,0.1-26.9,0.1-40.8c0-8.8-1.6-15.8-3.7-21.2c30.6-4.6,64.1-16.8,64.1-75.6c0-18.2-6.4-28.8-14.8-38.6
				c2.2-8.6,4.1-24.2-3.4-43.2c-1-2.6-3.2-4.6-5.9-5.5c-14.1-4.4-36.6,8.6-47.1,15.5c-11.8-2.9-24.5-4.5-37.1-4.5
				s-25.3,1.5-37.1,4.5c-10.5-6.9-33-19.9-47.1-15.5c-2.7,0.8-4.9,2.8-5.9,5.5c-7.6,19.1-5.5,34.9-3.4,43.2
				c-8.5,10.4-13.4,20.9-13.4,38.5c0,58.8,32.7,71,62.7,75.6c-0.8,2.1-1.5,4.3-2.1,6.6c-9.5,3.2-21,2.9-28.8-10.8
				c-10.8-18.8-30.3-20.5-31.1-20.6c-0.2,0-0.4,0-0.6,0c-8.7-0.1-14.1,2.8-15.9,8.6c-1.9,6,1.4,12.4,9.5,18c0.4,0.3,0.9,0.6,1.4,0.8
				c4.5,2.1,9.9,11.5,12.3,17.3c5,14.7,18.2,23.8,37.4,25.7c5.2,0.5,10.2,0.4,14.3,0.1c0,6.2,0.1,12.7,0.1,18c0,3,0,5.6,0,7.4
				c-57.9-20.1-96.7-75.5-96.7-138.3c0-80.6,61-141.3,141.8-141.3c81.7,0,145.7,62.1,145.7,141.3
				C367.7,320.4,329.5,375.8,272.3,395.6z"/>
			<path class="st0" d="M222,97.3c-43.9,0-84.5,16.3-114.2,45.9c-29.8,29.7-46.2,70.2-46.2,114c0,71.4,44.6,134.2,111,156.5
				c0.4,0.1,0.9,0.3,1.3,0.3c7.8,1.4,12.9-1.2,15.7-3.6c3.8-3.1,5.9-7.9,5.9-13.1c0-1.4,0-4.9,0-9.4c-0.1-8.5-0.1-20.1-0.1-28.5
				c0-2.8-1.3-5.4-3.4-7.2c0,0,0,0,0,0c-1.5-1.2-3.4-2-5.4-2.1c-0.8,0-1.6,0-2.4,0.2c0,0-0.5,0.1-1.2,0.2c-0.2,0-0.5,0.1-0.7,0.1
				c0,0-0.1,0-0.1,0c-0.9,0.1-2.1,0.3-3.6,0.5c-1.2,0.1-2.5,0.3-4,0.3c-1.1,0.1-2.4,0.1-3.6,0.1c-0.2,0-0.4,0-0.5,0h-0.2
				c-0.7,0-1.4,0-2,0c-0.8,0-1.6-0.1-2.5-0.1c-1.8-0.1-3.6-0.3-5.4-0.6c-0.8-0.1-1.5-0.3-2.3-0.5c-0.5-0.1-1.1-0.3-1.6-0.4
				c-0.2-0.1-0.3-0.1-0.5-0.2c-0.7-0.2-1.4-0.5-2.1-0.7c-0.6-0.2-1.2-0.5-1.7-0.7c-1.8-0.9-3.5-2-5-3.3c-0.2-0.2-0.4-0.4-0.6-0.6
				c0.3,0.2,0.5,0.4,0.8,0.5c1.5,1,3,1.8,4.5,2.6c0.9,0.4,1.7,0.8,2.6,1.1c0.6,0.2,1.1,0.4,1.7,0.6c0.1,0,0.3,0.1,0.4,0.1
				c0.4,0.1,0.9,0.3,1.3,0.4c1,0.3,2,0.5,3,0.7c1.5,0.3,3.1,0.5,4.7,0.6c1,0.1,2,0.1,3,0.1c0.6,0,1.2,0,1.8,0c0.1,0,0.1,0,0.2,0
				c0.1,0,0.2,0,0.3,0c1.4-0.1,2.9-0.2,4.3-0.4c0.9-0.1,1.9-0.3,2.8-0.5c1.5-0.3,2.9-0.6,4.3-1c0.1,0,0.3-0.1,0.4-0.1
				c0.1,0,0.1,0,0.2-0.1c1.7-0.5,3.4-1.1,5.1-1.8c0.9-0.3,1.7-0.7,2.5-1.1c1.6-0.7,2.9-1.9,3.9-3.3c0.8-1.2,1.3-2.5,1.5-3.9
				c0.9-6.6,3.4-12.1,6.9-15.2c2.7-2.5,3.8-6.3,2.7-9.8c-1.1-3.5-4.2-6-7.8-6.4c-32.7-3.6-61-6.8-61-58.9c0-14.4,3.6-20.7,12.1-30.1
				c2.4-2.7,3.1-6.5,1.7-9.8c-0.6-1.4-5-13-0.3-29.4c6.9,1.5,19.7,7.7,30.5,15.3c2.3,1.6,5.2,2.1,7.9,1.3
				c11.4-3.2,23.9-4.9,36.3-4.9s24.9,1.7,36.3,4.9c2.7,0.8,5.6,0.3,7.9-1.3c10.9-7.6,23.6-13.8,30.5-15.3
				c4.5,15.8,0.6,27.1-0.3,29.5c-1.3,3.3-0.6,7.1,1.8,9.7c9.2,10.1,13.5,16.4,13.5,30.1c0,52-29,55.2-62.6,58.9
				c-3.7,0.4-6.8,3-7.9,6.5c-1.1,3.6,0,7.4,2.9,9.8c2.2,1.9,7.3,7.7,7.3,21.5c0,13.9-0.1,30-0.1,40.7c0,5.3-0.1,9.2-0.1,10.9
				c0,5.1,2.2,9.9,6,13.1c2.3,1.9,6,4,11.4,4c1.3,0,2.8-0.1,4.3-0.4c0.4-0.1,0.9-0.2,1.3-0.3c65.7-21.9,109.7-84.8,109.6-156.5
				C386.3,167.6,314.1,97.3,222,97.3z M268.8,324.7c30.6-4.6,64.1-16.8,64.1-75.6c0-18.2-6.4-28.8-14.8-38.6
				c2.2-8.6,4.1-24.2-3.4-43.2c-1-2.6-3.2-4.6-5.9-5.5c-14.1-4.4-36.6,8.6-47.1,15.5c-11.8-2.9-24.5-4.5-37.1-4.5
				s-25.3,1.5-37.1,4.5c-10.5-6.9-33-19.9-47.1-15.5c-2.7,0.8-4.9,2.8-5.9,5.5c-7.6,19.1-5.5,34.9-3.4,43.2
				c-8.5,10.4-13.4,20.9-13.4,38.5c0,58.8,32.7,71,62.7,75.6c-0.8,2.1-1.5,4.3-2.1,6.6c-9.5,3.2-21,2.9-28.8-10.8
				c-10.8-18.8-30.3-20.5-31.1-20.6c-0.2,0-0.4,0-0.6,0c-8.7-0.1-14.1,2.8-15.9,8.6c-1.9,6,1.4,12.4,9.5,18c0.4,0.3,0.9,0.6,1.4,0.8
				c4.5,2.1,9.9,11.5,12.3,17.3c5,14.7,18.2,23.8,37.4,25.7c5.2,0.5,10.2,0.4,14.3,0.1c0,6.2,0.1,12.7,0.1,18c0,3,0,5.6,0,7.4
				c-57.9-20.1-96.7-75.5-96.7-138.3c0-80.6,61-141.3,141.8-141.3c81.7,0,145.7,62.1,145.7,141.3c0.1,63.1-38.2,118.4-95.3,138.2
				c0-2,0-5.1,0-8.8c0.1-10.7,0.1-26.9,0.1-40.8C272.5,337.1,270.9,330.1,268.8,324.7z M140.6,332.6c-0.6,0.4-1.5,0.2-2.4-0.4h0
				c-0.4-0.3-0.7-0.6-1.1-1c-0.1-0.1-0.1-0.2-0.2-0.3c-0.8-1.2-0.7-2.6,0-3.2c0,0,0.1-0.1,0.2-0.1c0,0,0.1,0,0.1,0
				c0.9-0.6,2.1-0.3,2.9,0.7c0.2,0.2,0.3,0.4,0.5,0.6c0.3,0.4,0.5,0.9,0.6,1.3C141.5,331.1,141.3,332.1,140.6,332.6z M131.3,323
				c0,0-0.1-0.1-0.1-0.2c-0.3-0.4-0.6-0.9-0.7-1.3c0-0.2-0.1-0.3-0.1-0.4c-0.1-0.6,0.1-1,0.5-1.4c0.2-0.1,0.3-0.2,0.5-0.3
				c0.4-0.1,0.8-0.1,1.2,0c0.5,0.1,0.9,0.4,1.3,0.7c0.1,0.1,0.1,0.1,0.2,0.2c0,0,0.1,0.1,0.1,0.1c0.9,1.2,1.1,2.5,0.2,3.1
				c-0.8,0.8-2,0.4-3-0.3C131.5,323.1,131.4,323,131.3,323z M125.8,317.1c0,0-0.1,0-0.1-0.1c-0.1,0-0.2-0.1-0.2-0.1
				c-1.1-0.6-1.5-1.5-1.2-2.3c0.4-0.6,1.4-0.8,2.6-0.4c1.1,0.6,1.7,1.5,1.5,2.2c0,0.1,0,0.2-0.1,0.2c0,0.1-0.1,0.2-0.2,0.3
				c0,0.1-0.1,0.1-0.2,0.2c-0.1,0.1-0.2,0.1-0.3,0.2C127.2,317.5,126.5,317.4,125.8,317.1z M145.5,340.9c0-0.2,0.1-0.3,0.2-0.4
				c-0.1,0.1-0.3,0.2-0.4,0.2c-0.1,0-0.1-0.1-0.2-0.2c-1.4-1.2-1.8-3-0.8-3.8c0.8-1,2.4-0.9,3.8,0.3c0.1,0.1,0.2,0.1,0.2,0.2
				c0.1,0.1,0.2,0.2,0.3,0.4c1,1.2,1.2,2.8,0.5,3.4C148.3,342,146.8,341.9,145.5,340.9z M157.3,347.5c-0.1,0-0.3,0-0.4-0.1
				c-0.1,0-0.1,0-0.2-0.1c0,0-0.1,0-0.1,0c-0.2,0-0.3-0.1-0.5-0.1c-1.5-0.5-2.4-1.8-2-2.8c0.4-1.2,2.2-1.8,3.8-1.4
				c0.1,0,0.1,0,0.2,0c0.1,0,0.2,0.1,0.3,0.1c1.6,0.6,2.6,1.9,2.2,3C160.2,347.2,158.8,347.7,157.3,347.5z M170.1,349.4
				c-0.1,0-0.2,0-0.4,0c-0.1-0.2-0.1-0.5-0.2-0.7c0,0.2-0.1,0.3-0.1,0.5c0,0.1,0,0.1-0.1,0.2c-1.6-0.1-2.7-1-2.7-2.2
				c0-1.1,1.1-2,2.6-2.2c0.2,0,0.4,0,0.6,0c0,0,0.1,0,0.1,0c1.7-0.1,3.4,0.9,3.4,2.2C173.3,348.3,172,349.4,170.1,349.4z
				 M182.7,347.9c-0.1,0-0.2,0.1-0.3,0.1c0,0-0.1,0-0.1,0c-0.1,0-0.2,0-0.4,0c-1.6,0.2-3.1-0.5-3.3-1.6c-0.2-1.4,1-2.6,2.8-3
				c0.2,0,0.4,0,0.7,0c1.5,0,2.8,0.7,3,1.8c0,0.1,0,0.2,0,0.2c0,0,0,0,0,0.1C185.1,346.5,184.1,347.4,182.7,347.9z"/>
		</g>
		<g>
			<path class="st0" d="M182.5,348.9l-0.2-1c0,0-0.1,0-0.1,0c-0.1,0-0.2,0-0.4,0l0.2,1.6c0.1,0,0.3-0.1,0.4-0.1c0.1,0,0.1,0,0.2-0.1
				L182.5,348.9z M176,347.4c-0.1-0.1-0.1-0.3-0.1-0.4c-0.1-0.5-0.1-1.1-0.1-1.7c0-1.4,0.5-2.7,1.2-3.9c0.1-0.1,0.1-0.2,0.2-0.2
				c-0.3,0.1-0.5,0.1-0.8,0.2c-0.3,0.1-0.6,0.1-0.8,0.2c-0.2,0-0.5,0.1-0.7,0.1c-0.2,0-0.5,0.1-0.8,0.1c-0.1,0-0.2,0-0.2,0
				c-0.6,0.1-1.2,0.2-1.8,0.2c-0.1,0-0.1,0-0.2,0c-0.3,0-0.5,0-0.8,0.1c-0.3,0-0.6,0-1,0c0,0,0,0.1,0,0.1v2.6c0,0,0.1,0,0.1,0
				c1.7-0.1,3.4,0.9,3.4,2.2c0,1.2-1.4,2.2-3.3,2.2l0.1,1.3c0.1,0.3,0.2,0.5,0.4,0.8c1.4-0.1,2.9-0.2,4.3-0.4
				c0.9-0.1,1.9-0.3,2.8-0.5C176.9,349.7,176.3,348.7,176,347.4z M182.5,348.9l-0.2-1c0,0-0.1,0-0.1,0c-0.1,0-0.2,0-0.4,0l0.2,1.6
				c0.1,0,0.3-0.1,0.4-0.1c0.1,0,0.1,0,0.2-0.1L182.5,348.9z M176,347.4c-0.1-0.1-0.1-0.3-0.1-0.4c-0.1-0.5-0.1-1.1-0.1-1.7
				c0-1.4,0.5-2.7,1.2-3.9c0.1-0.1,0.1-0.2,0.2-0.2c-0.3,0.1-0.5,0.1-0.8,0.2c-0.3,0.1-0.6,0.1-0.8,0.2c-0.2,0-0.5,0.1-0.7,0.1
				c-0.2,0-0.5,0.1-0.8,0.1c-0.1,0-0.2,0-0.2,0c-0.6,0.1-1.2,0.2-1.8,0.2c-0.1,0-0.1,0-0.2,0c-0.3,0-0.5,0-0.8,0.1c-0.3,0-0.6,0-1,0
				c0,0,0,0.1,0,0.1v2.6c0,0,0.1,0,0.1,0c1.7-0.1,3.4,0.9,3.4,2.2c0,1.2-1.4,2.2-3.3,2.2l0.1,1.3c0.1,0.3,0.2,0.5,0.4,0.8
				c1.4-0.1,2.9-0.2,4.3-0.4c0.9-0.1,1.9-0.3,2.8-0.5C176.9,349.7,176.3,348.7,176,347.4z M182.5,348.9l-0.2-1c0,0-0.1,0-0.1,0
				c-0.1,0-0.2,0-0.4,0l0.2,1.6c0.1,0,0.3-0.1,0.4-0.1c0.1,0,0.1,0,0.2-0.1L182.5,348.9z M176,347.4c-0.1-0.1-0.1-0.3-0.1-0.4
				c-0.1-0.5-0.1-1.1-0.1-1.7c0-1.4,0.5-2.7,1.2-3.9c0.1-0.1,0.1-0.2,0.2-0.2c-0.3,0.1-0.5,0.1-0.8,0.2c-0.3,0.1-0.6,0.1-0.8,0.2
				c-0.2,0-0.5,0.1-0.7,0.1c-0.2,0-0.5,0.1-0.8,0.1c-0.1,0-0.2,0-0.2,0c-0.6,0.1-1.2,0.2-1.8,0.2c-0.1,0-0.1,0-0.2,0
				c-0.3,0-0.5,0-0.8,0.1c-0.3,0-0.6,0-1,0c0,0,0,0.1,0,0.1v2.6c0,0,0.1,0,0.1,0c1.7-0.1,3.4,0.9,3.4,2.2c0,1.2-1.4,2.2-3.3,2.2
				l0.1,1.3c0.1,0.3,0.2,0.5,0.4,0.8c1.4-0.1,2.9-0.2,4.3-0.4c0.9-0.1,1.9-0.3,2.8-0.5C176.9,349.7,176.3,348.7,176,347.4z
				 M182.5,348.9l-0.2-1c0,0-0.1,0-0.1,0c-0.1,0-0.2,0-0.4,0l0.2,1.6c0.1,0,0.3-0.1,0.4-0.1c0.1,0,0.1,0,0.2-0.1L182.5,348.9z
				 M176,347.4c-0.1-0.1-0.1-0.3-0.1-0.4c-0.1-0.5-0.1-1.1-0.1-1.7c0-1.4,0.5-2.7,1.2-3.9c0.1-0.1,0.1-0.2,0.2-0.2
				c-0.3,0.1-0.5,0.1-0.8,0.2c-0.3,0.1-0.6,0.1-0.8,0.2c-0.2,0-0.5,0.1-0.7,0.1c-0.2,0-0.5,0.1-0.8,0.1c-0.1,0-0.2,0-0.2,0
				c-0.6,0.1-1.2,0.2-1.8,0.2c-0.1,0-0.1,0-0.2,0c-0.3,0-0.5,0-0.8,0.1c-0.3,0-0.6,0-1,0c0,0,0,0.1,0,0.1v2.6c0,0,0.1,0,0.1,0
				c1.7-0.1,3.4,0.9,3.4,2.2c0,1.2-1.4,2.2-3.3,2.2l0.1,1.3c0.1,0.3,0.2,0.5,0.4,0.8c1.4-0.1,2.9-0.2,4.3-0.4
				c0.9-0.1,1.9-0.3,2.8-0.5C176.9,349.7,176.3,348.7,176,347.4z M182.5,348.9l-0.2-1c0,0-0.1,0-0.1,0c-0.1,0-0.2,0-0.4,0l0.2,1.6
				c0.1,0,0.3-0.1,0.4-0.1c0.1,0,0.1,0,0.2-0.1L182.5,348.9z M176,347.4c-0.1-0.1-0.1-0.3-0.1-0.4c-0.1-0.5-0.1-1.1-0.1-1.7
				c0-1.4,0.5-2.7,1.2-3.9c0.1-0.1,0.1-0.2,0.2-0.2c-0.3,0.1-0.5,0.1-0.8,0.2c-0.3,0.1-0.6,0.1-0.8,0.2c-0.2,0-0.5,0.1-0.7,0.1
				c-0.2,0-0.5,0.1-0.8,0.1c-0.1,0-0.2,0-0.2,0c-0.6,0.1-1.2,0.2-1.8,0.2c-0.1,0-0.1,0-0.2,0c-0.3,0-0.5,0-0.8,0.1c-0.3,0-0.6,0-1,0
				c0,0,0,0.1,0,0.1v2.6c0,0,0.1,0,0.1,0c1.7-0.1,3.4,0.9,3.4,2.2c0,1.2-1.4,2.2-3.3,2.2l0.1,1.3c0.1,0.3,0.2,0.5,0.4,0.8
				c1.4-0.1,2.9-0.2,4.3-0.4c0.9-0.1,1.9-0.3,2.8-0.5C176.9,349.7,176.3,348.7,176,347.4z M182.5,348.9l-0.2-1c0,0-0.1,0-0.1,0
				c-0.1,0-0.2,0-0.4,0l0.2,1.6c0.1,0,0.3-0.1,0.4-0.1c0.1,0,0.1,0,0.2-0.1L182.5,348.9z M176,347.4c-0.1-0.1-0.1-0.3-0.1-0.4
				c-0.1-0.5-0.1-1.1-0.1-1.7c0-1.4,0.5-2.7,1.2-3.9c0.1-0.1,0.1-0.2,0.2-0.2c-0.3,0.1-0.5,0.1-0.8,0.2c-0.3,0.1-0.6,0.1-0.8,0.2
				c-0.2,0-0.5,0.1-0.7,0.1c-0.2,0-0.5,0.1-0.8,0.1c-0.1,0-0.2,0-0.2,0c-0.6,0.1-1.2,0.2-1.8,0.2c-0.1,0-0.1,0-0.2,0
				c-0.3,0-0.5,0-0.8,0.1c-0.3,0-0.6,0-1,0c0,0,0,0.1,0,0.1v2.6c0,0,0.1,0,0.1,0c1.7-0.1,3.4,0.9,3.4,2.2c0,1.2-1.4,2.2-3.3,2.2
				l0.1,1.3c0.1,0.3,0.2,0.5,0.4,0.8c1.4-0.1,2.9-0.2,4.3-0.4c0.9-0.1,1.9-0.3,2.8-0.5C176.9,349.7,176.3,348.7,176,347.4z
				 M182.5,348.9l-0.2-1c0,0-0.1,0-0.1,0c-0.1,0-0.2,0-0.4,0l0.2,1.6c0.1,0,0.3-0.1,0.4-0.1c0.1,0,0.1,0,0.2-0.1L182.5,348.9z
				 M175.8,346.9c-0.1-0.5-0.1-1.1-0.1-1.7c0-1.4,0.5-2.7,1.2-3.9c0.1-0.1,0.1-0.2,0.2-0.2c-0.3,0.1-0.5,0.1-0.8,0.2
				c-0.3,0.1-0.6,0.1-0.8,0.2c-0.2,0-0.5,0.1-0.7,0.1c-0.2,0-0.5,0.1-0.8,0.1c-0.1,0-0.2,0-0.2,0c-0.6,0.1-1.2,0.2-1.8,0.2
				c-0.1,0-0.1,0-0.2,0c-0.3,0-0.5,0-0.8,0.1c-0.3,0-0.6,0-1,0c0,0,0,0.1,0,0.1v2.6c0,0,0.1,0,0.1,0c1.7-0.1,3.4,0.9,3.4,2.2
				c0,1.2-1.4,2.2-3.3,2.2l0.1,1.3c0.1,0.3,0.2,0.5,0.4,0.8c1.4-0.1,2.9-0.2,4.3-0.4c0.9-0.1,1.9-0.3,2.8-0.5
				c-0.8-0.9-1.4-1.9-1.7-3.2C175.9,347.2,175.9,347.1,175.8,346.9z M194.2,343.4c0,0,0-0.1,0-0.2c-0.8-3.9-3.5-6.9-7.2-8.3
				c-2-0.8-4.2-1.1-6.6-0.8c-0.3,0-0.6,0.1-0.9,0.1c-1.8,0.4-3.4,1.1-4.8,2c-1.6,1-2.9,2.4-3.8,4c-0.4,0.6-0.7,1.2-0.9,1.9
				c0,0,0,0.1,0,0.1c-0.1,0.2-0.2,0.4-0.2,0.6c0,0,0,0,0,0c-0.2,0.6-0.3,1.3-0.4,2c0.2,0,0.4,0,0.6,0c0,0,0.1,0,0.1,0
				c1.7-0.1,3.4,0.9,3.4,2.2c0,1.2-1.4,2.2-3.3,2.2c-0.1,0-0.2,0-0.4,0c0.1,0.3,0.2,0.7,0.4,1c0,0.1,0.1,0.2,0.1,0.3
				c0.1,0.3,0.2,0.5,0.4,0.8c0.1,0.1,0.2,0.3,0.2,0.4c0.4,0.6,0.8,1.2,1.4,1.8c0.5,0.6,1.1,1.1,1.8,1.6c1,0.7,2,1.2,3.2,1.6
				c1.3,0.4,2.7,0.7,4.1,0.7c0.9,0,1.9-0.1,2.8-0.3c3.2-0.7,6-2.3,7.9-4.7c0.2-0.3,0.5-0.6,0.6-0.9
				C194.2,349.1,194.7,346.2,194.2,343.4z M183.3,352.5l-0.4-1.8l-0.3-1.3l-0.1-0.5l-0.2-1c0,0-0.1,0-0.1,0c-0.1,0-0.2,0-0.4,0
				l0.2,1.6l0.1,1l0,0.3l0.2,1.8c-0.4,0-0.8,0-1.1,0c-0.9-0.2-1.9-0.6-2.7-1.3c-0.3-0.2-0.5-0.5-0.8-0.7c-0.8-0.9-1.4-1.9-1.7-3.2
				c-0.1-0.1-0.1-0.3-0.1-0.4c-0.1-0.5-0.1-1.1-0.1-1.7c0-1.4,0.5-2.7,1.2-3.9c0.1-0.1,0.1-0.2,0.2-0.2c0.6-0.9,1.4-1.6,2.3-2
				c0.3-0.2,0.7-0.3,1-0.4c1.1-0.2,2.2-0.1,3.3,0.4c0.4,0.2,0.7,0.4,1.1,0.6c1.6,1.1,2.7,2.8,3,4.7l-2.7,0.6l2.8-0.4
				c0,0.1,0,0.2,0,0.2l-2.8,0.4c0,0,0,0,0,0.1l2.8-0.4c0.1,0.9,0.1,1.7-0.1,2.5c-0.2,1-0.6,1.9-1.2,2.7
				C185.7,351.5,184.5,352.3,183.3,352.5z M176,347.4c-0.1-0.1-0.1-0.3-0.1-0.4c-0.1-0.5-0.1-1.1-0.1-1.7c0-1.4,0.5-2.7,1.2-3.9
				c0.1-0.1,0.1-0.2,0.2-0.2c-0.3,0.1-0.5,0.1-0.8,0.2c-0.3,0.1-0.6,0.1-0.8,0.2c-0.2,0-0.5,0.1-0.7,0.1c-0.2,0-0.5,0.1-0.8,0.1
				c-0.1,0-0.2,0-0.2,0c-0.6,0.1-1.2,0.2-1.8,0.2c-0.1,0-0.1,0-0.2,0c-0.3,0-0.5,0-0.8,0.1c-0.3,0-0.6,0-1,0c0,0,0,0.1,0,0.1v2.6
				c0,0,0.1,0,0.1,0c1.7-0.1,3.4,0.9,3.4,2.2c0,1.2-1.4,2.2-3.3,2.2l0.1,1.3c0.1,0.3,0.2,0.5,0.4,0.8c1.4-0.1,2.9-0.2,4.3-0.4
				c0.9-0.1,1.9-0.3,2.8-0.5C176.9,349.7,176.3,348.7,176,347.4z M182.5,348.9l-0.2-1c0,0-0.1,0-0.1,0c-0.1,0-0.2,0-0.4,0l0.2,1.6
				c0.1,0,0.3-0.1,0.4-0.1c0.1,0,0.1,0,0.2-0.1L182.5,348.9z M176,347.4c-0.1-0.1-0.1-0.3-0.1-0.4c-0.1-0.5-0.1-1.1-0.1-1.7
				c0-1.4,0.5-2.7,1.2-3.9c0.1-0.1,0.1-0.2,0.2-0.2c-0.3,0.1-0.5,0.1-0.8,0.2c-0.3,0.1-0.6,0.1-0.8,0.2c-0.2,0-0.5,0.1-0.7,0.1
				c-0.2,0-0.5,0.1-0.8,0.1c-0.1,0-0.2,0-0.2,0c-0.6,0.1-1.2,0.2-1.8,0.2c-0.1,0-0.1,0-0.2,0c-0.3,0-0.5,0-0.8,0.1c-0.3,0-0.6,0-1,0
				c0,0,0,0.1,0,0.1v2.6c0,0,0.1,0,0.1,0c1.7-0.1,3.4,0.9,3.4,2.2c0,1.2-1.4,2.2-3.3,2.2l0.1,1.3c0.1,0.3,0.2,0.5,0.4,0.8
				c1.4-0.1,2.9-0.2,4.3-0.4c0.9-0.1,1.9-0.3,2.8-0.5C176.9,349.7,176.3,348.7,176,347.4z M182.5,348.9l-0.2-1c0,0-0.1,0-0.1,0
				c-0.1,0-0.2,0-0.4,0l0.2,1.6c0.1,0,0.3-0.1,0.4-0.1c0.1,0,0.1,0,0.2-0.1L182.5,348.9z M176,347.4c-0.1-0.1-0.1-0.3-0.1-0.4
				c-0.1-0.5-0.1-1.1-0.1-1.7c0-1.4,0.5-2.7,1.2-3.9c0.1-0.1,0.1-0.2,0.2-0.2c-0.3,0.1-0.5,0.1-0.8,0.2c-0.3,0.1-0.6,0.1-0.8,0.2
				c-0.2,0-0.5,0.1-0.7,0.1c-0.2,0-0.5,0.1-0.8,0.1c-0.1,0-0.2,0-0.2,0c-0.6,0.1-1.2,0.2-1.8,0.2c-0.1,0-0.1,0-0.2,0
				c-0.3,0-0.5,0-0.8,0.1c-0.3,0-0.6,0-1,0c0,0,0,0.1,0,0.1v2.6c0,0,0.1,0,0.1,0c1.7-0.1,3.4,0.9,3.4,2.2c0,1.2-1.4,2.2-3.3,2.2
				l0.1,1.3c0.1,0.3,0.2,0.5,0.4,0.8c1.4-0.1,2.9-0.2,4.3-0.4c0.9-0.1,1.9-0.3,2.8-0.5C176.9,349.7,176.3,348.7,176,347.4z
				 M182.5,348.9l-0.2-1c0,0-0.1,0-0.1,0c-0.1,0-0.2,0-0.4,0l0.2,1.6c0.1,0,0.3-0.1,0.4-0.1c0.1,0,0.1,0,0.2-0.1L182.5,348.9z
				 M176,347.4c-0.1-0.1-0.1-0.3-0.1-0.4c-0.1-0.5-0.1-1.1-0.1-1.7c0-1.4,0.5-2.7,1.2-3.9c0.1-0.1,0.1-0.2,0.2-0.2
				c-0.3,0.1-0.5,0.1-0.8,0.2c-0.3,0.1-0.6,0.1-0.8,0.2c-0.2,0-0.5,0.1-0.7,0.1c-0.2,0-0.5,0.1-0.8,0.1c-0.1,0-0.2,0-0.2,0
				c-0.6,0.1-1.2,0.2-1.8,0.2c-0.1,0-0.1,0-0.2,0c-0.3,0-0.5,0-0.8,0.1c-0.3,0-0.6,0-1,0c0,0,0,0.1,0,0.1v2.6c0,0,0.1,0,0.1,0
				c1.7-0.1,3.4,0.9,3.4,2.2c0,1.2-1.4,2.2-3.3,2.2l0.1,1.3c0.1,0.3,0.2,0.5,0.4,0.8c1.4-0.1,2.9-0.2,4.3-0.4
				c0.9-0.1,1.9-0.3,2.8-0.5C176.9,349.7,176.3,348.7,176,347.4z M182.5,348.9l-0.2-1c0,0-0.1,0-0.1,0c-0.1,0-0.2,0-0.4,0l0.2,1.6
				c0.1,0,0.3-0.1,0.4-0.1c0.1,0,0.1,0,0.2-0.1L182.5,348.9z M176,347.4c-0.1-0.1-0.1-0.3-0.1-0.4c-0.1-0.5-0.1-1.1-0.1-1.7
				c0-1.4,0.5-2.7,1.2-3.9c0.1-0.1,0.1-0.2,0.2-0.2c-0.3,0.1-0.5,0.1-0.8,0.2c-0.3,0.1-0.6,0.1-0.8,0.2c-0.2,0-0.5,0.1-0.7,0.1
				c-0.2,0-0.5,0.1-0.8,0.1c-0.1,0-0.2,0-0.2,0c-0.6,0.1-1.2,0.2-1.8,0.2c-0.1,0-0.1,0-0.2,0c-0.3,0-0.5,0-0.8,0.1c-0.3,0-0.6,0-1,0
				c0,0,0,0.1,0,0.1v2.6c0,0,0.1,0,0.1,0c1.7-0.1,3.4,0.9,3.4,2.2c0,1.2-1.4,2.2-3.3,2.2l0.1,1.3c0.1,0.3,0.2,0.5,0.4,0.8
				c1.4-0.1,2.9-0.2,4.3-0.4c0.9-0.1,1.9-0.3,2.8-0.5C176.9,349.7,176.3,348.7,176,347.4z M182.5,348.9l-0.2-1c0,0-0.1,0-0.1,0
				c-0.1,0-0.2,0-0.4,0l0.2,1.6c0.1,0,0.3-0.1,0.4-0.1c0.1,0,0.1,0,0.2-0.1L182.5,348.9z M176,347.4c-0.1-0.1-0.1-0.3-0.1-0.4
				c-0.1-0.5-0.1-1.1-0.1-1.7c0-1.4,0.5-2.7,1.2-3.9c0.1-0.1,0.1-0.2,0.2-0.2c-0.3,0.1-0.5,0.1-0.8,0.2c-0.3,0.1-0.6,0.1-0.8,0.2
				c-0.2,0-0.5,0.1-0.7,0.1c-0.2,0-0.5,0.1-0.8,0.1c-0.1,0-0.2,0-0.2,0c-0.6,0.1-1.2,0.2-1.8,0.2c-0.1,0-0.1,0-0.2,0
				c-0.3,0-0.5,0-0.8,0.1c-0.3,0-0.6,0-1,0c0,0,0,0.1,0,0.1v2.6c0,0,0.1,0,0.1,0c1.7-0.1,3.4,0.9,3.4,2.2c0,1.2-1.4,2.2-3.3,2.2
				l0.1,1.3c0.1,0.3,0.2,0.5,0.4,0.8c1.4-0.1,2.9-0.2,4.3-0.4c0.9-0.1,1.9-0.3,2.8-0.5C176.9,349.7,176.3,348.7,176,347.4z
				 M182.5,348.9l-0.2-1c0,0-0.1,0-0.1,0c-0.1,0-0.2,0-0.4,0l0.2,1.6c0.1,0,0.3-0.1,0.4-0.1c0.1,0,0.1,0,0.2-0.1L182.5,348.9z
				 M176,347.4c-0.1-0.1-0.1-0.3-0.1-0.4c-0.1-0.5-0.1-1.1-0.1-1.7c0-1.4,0.5-2.7,1.2-3.9c0.1-0.1,0.1-0.2,0.2-0.2
				c-0.3,0.1-0.5,0.1-0.8,0.2c-0.3,0.1-0.6,0.1-0.8,0.2c-0.2,0-0.5,0.1-0.7,0.1c-0.2,0-0.5,0.1-0.8,0.1c-0.1,0-0.2,0-0.2,0
				c-0.6,0.1-1.2,0.2-1.8,0.2c-0.1,0-0.1,0-0.2,0c-0.3,0-0.5,0-0.8,0.1c-0.3,0-0.6,0-1,0c0,0,0,0.1,0,0.1v2.6c0,0,0.1,0,0.1,0
				c1.7-0.1,3.4,0.9,3.4,2.2c0,1.2-1.4,2.2-3.3,2.2l0.1,1.3c0.1,0.3,0.2,0.5,0.4,0.8c1.4-0.1,2.9-0.2,4.3-0.4
				c0.9-0.1,1.9-0.3,2.8-0.5C176.9,349.7,176.3,348.7,176,347.4z M182.5,348.9l-0.2-1c0,0-0.1,0-0.1,0c-0.1,0-0.2,0-0.4,0l0.2,1.6
				c0.1,0,0.3-0.1,0.4-0.1c0.1,0,0.1,0,0.2-0.1L182.5,348.9z"/>
			<path class="st0" d="M187.7,347.7c-0.2,1-0.6,1.9-1.2,2.7c-0.8,0-1.6,0-2.4,0.2c0,0-0.5,0.1-1.2,0.2l-0.3-1.3
				C184.4,348.9,186.1,348.3,187.7,347.7z"/>
		</g>
		<g>
			<path class="st0" d="M169.7,349.4c-0.1,0-0.3,0-0.4,0c0-0.1,0.1-0.1,0.1-0.2c0.1-0.2,0.1-0.3,0.1-0.5
				C169.6,348.9,169.7,349.2,169.7,349.4z"/>
			<path class="st0" d="M182.3,347.9c0,0-0.1,0-0.1,0c-0.1,0-0.2,0-0.4,0c-1.6,0.2-3.1-0.5-3.3-1.6c-0.2-1.4,1-2.6,2.8-3
				c0.2,0,0.4,0,0.7,0c-0.4-1.1-1-2.1-1.7-3c-0.3-0.4-0.6-0.8-1-1.2c-0.2-0.2-0.3-0.3-0.5-0.4c-1.2-1.1-2.7-1.9-4.2-2.5
				c-1.6-0.6-3.4-0.8-5.2-0.7c-1.5,0.1-2.9,0.3-4.2,0.8c-1.7,0.6-3.3,1.6-4.5,2.8c-0.5,0.5-1,1.1-1.4,1.7c-0.2,0.3-0.4,0.6-0.6,0.9
				c-0.2,0.4-0.4,0.8-0.6,1.2c0.1,0,0.2,0.1,0.3,0.1c1.6,0.6,2.6,1.9,2.2,3c-0.3,1.1-1.8,1.6-3.3,1.4c0,0.9,0.1,1.7,0.4,2.5
				c0,0.2,0.1,0.4,0.2,0.6c0.2,0.5,0.3,0.9,0.5,1.3c0.6,1.3,1.5,2.6,2.6,3.6c0.3,0.3,0.6,0.5,0.9,0.8c2.2,1.6,4.8,2.5,7.7,2.5
				c0.3,0,0.6,0,0.9,0c2.5-0.1,4.8-0.8,6.6-2c1.7-1,3.1-2.4,4-4.1c0.3-0.6,0.6-1.2,0.8-1.8c0-0.1,0.1-0.2,0.1-0.3
				c0.1-0.4,0.2-0.7,0.3-1.1c0-0.2,0.1-0.3,0.1-0.5c0.1-0.4,0.1-0.7,0.1-1.1C182.5,347.9,182.4,347.9,182.3,347.9z M170.5,354.2
				l-0.2-2.3l0-0.4l-0.1-0.8l-0.1-1.3v4.8c-1.1,0-2.1-0.4-3.1-1.1c-0.2-0.1-0.4-0.3-0.6-0.5c-0.3-0.3-0.6-0.6-0.8-0.9
				c-0.1-0.1-0.2-0.2-0.3-0.4c-0.8-1.2-1.3-2.7-1.3-4.2c0-2,0.8-3.8,1.9-5c0.8-0.9,1.7-1.5,2.7-1.8c0.2-0.1,0.5-0.2,0.7-0.2l0.2,2.1
				l0.1,0.7l0,0.1l0.2,1.9v-4.8c0.3,0,0.6,0.1,1,0.2c0.9,0.2,1.8,0.7,2.7,1.5l0.1,0.1c1,0.9,1.7,2.1,2,3.5c0.2,0.6,0.2,1.2,0.2,1.8
				c0,0.1,0,0.2,0,0.2c0,1.4-0.4,2.6-1.1,3.7c-0.1,0.2-0.3,0.4-0.4,0.6c-0.6,0.8-1.4,1.5-2.3,1.9
				C171.7,353.9,171.1,354.1,170.5,354.2z"/>
		</g>
		<g>
			<path class="st0" d="M169.3,344.9c0.2,0,0.4,0,0.6,0c0,0,0.1,0,0.1,0c0-0.3,0-0.6-0.1-0.9c-0.1-0.3-0.1-0.7-0.2-1c0,0,0,0,0-0.1
				c-0.1-0.2-0.1-0.5-0.2-0.8c-0.2-0.5-0.4-1-0.6-1.5c-0.1-0.1-0.1-0.3-0.2-0.4c-0.8-1.5-2-2.9-3.4-3.9c-1.3-1-2.9-1.8-4.6-2.3
				c-0.2-0.1-0.4-0.1-0.5-0.1c-1-0.2-2.1-0.4-3.1-0.4c-1.8,0-3.5,0.3-5,0.9c-0.8,0.3-1.5,0.7-2.2,1.1c0,0-0.1,0-0.1,0.1
				c-0.6,0.4-1.2,0.9-1.7,1.4c0.1,0.1,0.2,0.1,0.2,0.2c0.1,0.1,0.2,0.2,0.3,0.4c1,1.2,1.2,2.8,0.5,3.4c-0.8,0.9-2.3,0.9-3.6-0.2
				c-0.1,0.2-0.2,0.5-0.3,0.8c-0.4,1.2-0.5,2.5-0.4,3.7c0.1,1.8,0.6,3.6,1.6,5.2c0.1,0.2,0.2,0.3,0.3,0.5c1.7,2.6,4.5,4.5,7.6,5.3
				c1.2,0.4,2.5,0.6,3.8,0.6c1.3,0,2.6-0.2,3.9-0.6c0.6-0.2,1.2-0.4,1.8-0.7c1.3-0.6,2.4-1.5,3.3-2.4c0.4-0.4,0.7-0.8,1-1.3
				c0.1-0.1,0.2-0.2,0.2-0.3c0.4-0.7,0.8-1.4,1-2.1c-1.6-0.1-2.7-1-2.7-2.2C166.6,346.1,167.7,345.1,169.3,344.9z M155.8,352
				l0.4-1.8l0.1-0.6l0.5-2.3c-0.1,0-0.1,0-0.2-0.1c0,0-0.1,0-0.1,0l-0.6,2l-0.1,0.2l-0.2,0.5l-0.6,1.8c-0.9-0.3-1.8-1-2.5-2
				c-0.2-0.3-0.4-0.6-0.6-0.9c-0.1-0.1-0.1-0.2-0.2-0.4c-0.1-0.3-0.2-0.5-0.3-0.8c-0.5-1.5-0.4-3.2,0.1-4.7c0.6-1.7,1.8-3.2,3.3-4
				c0.1-0.1,0.2-0.1,0.3-0.2c1.1-0.5,2.2-0.8,3.3-0.6c0.2,0,0.3,0,0.5,0.1c0.5,0.2,1,0.5,1.5,0.8c0.7,0.5,1.2,1.1,1.7,1.9
				c0.1,0.2,0.2,0.4,0.3,0.6c0.8,1.6,0.9,3.5,0.4,5.2l-2.5-0.8l2.5,0.9c0,0,0,0,0,0c-0.5,1.5-1.3,2.8-2.4,3.7
				c-0.2,0.1-0.3,0.2-0.5,0.4c-0.5,0.4-1.1,0.7-1.8,0.9C157.5,352.2,156.7,352.2,155.8,352z"/>
		</g>
		<g>
			<path class="st0" d="M145.7,340.4c-0.1,0.1-0.1,0.3-0.2,0.4c-0.1,0-0.1-0.1-0.2-0.2C145.4,340.6,145.5,340.5,145.7,340.4z"/>
			<path class="st0" d="M158.7,338.2c-0.2-1.6-0.8-3.3-1.7-4.8c-0.6-1-1.3-2-2.2-2.8c-1.3-1.3-2.9-2.4-4.6-3c-1.6-0.7-3.3-1-5-0.9
				h-0.1c-0.5,0-0.9,0.1-1.4,0.2c-0.1,0-0.2,0-0.3,0.1c-0.1,0-0.3,0.1-0.4,0.1c-0.1,0-0.3,0.1-0.4,0.1c-0.9,0.2-1.7,0.6-2.4,1
				c0.2,0.2,0.3,0.4,0.5,0.6c0.3,0.4,0.5,0.9,0.6,1.3c0.3,1,0.1,2-0.6,2.5c-0.6,0.4-1.5,0.2-2.4-0.4h0c-0.4-0.3-0.7-0.6-1.1-1
				c-0.1-0.1-0.1-0.2-0.2-0.3c-0.6,0.7-1.1,1.4-1.4,2.2c-0.4,0.8-0.7,1.6-0.8,2.4c-0.2,0.8-0.3,1.7-0.3,2.5c0,1,0.2,2,0.4,2.9
				c0.6,2.4,2,4.6,3.9,6.4c2.2,2.1,5,3.4,7.9,3.7c0.3,0,0.7,0,1,0c0.2,0,0.4,0,0.6,0c1.6-0.1,3.1-0.5,4.5-1.2c0.3-0.2,0.7-0.4,1-0.5
				c0.2-0.1,0.4-0.3,0.6-0.4c0.6-0.4,1.1-0.9,1.6-1.4c0.1-0.1,0.2-0.2,0.3-0.4c-1.5-0.5-2.4-1.8-2-2.8c0.4-1.2,2.2-1.8,3.8-1.4
				c0.1,0,0.1,0,0.2,0c0.1,0,0.2,0.1,0.3,0.1c0.1-0.4,0.2-0.9,0.3-1.4c0.1-0.4,0.1-0.7,0.1-1.1c0-0.1,0-0.2,0-0.3
				C158.9,339.6,158.8,338.9,158.7,338.2z M146.1,345.4c-0.4,0-0.9,0-1.3-0.1c-1.1-0.2-2.1-0.6-2.8-1.2l2.7-3.1l0.4-0.5l-3.4,3.4
				c0,0,0,0,0,0c-0.5-0.5-0.9-1.2-1.1-1.8c-0.3-0.8-0.4-1.7-0.4-2.3c0-1.4,0.5-2.8,1.3-4c0.2-0.3,0.4-0.6,0.6-0.8l0.4,0.3l1.8,1.5
				l-1.5-1.7l-0.4-0.4c0.6-0.6,1.3-1.1,2.1-1.5c0.7-0.3,1.4-0.6,2.1-0.7c0.2,0,0.5-0.1,0.7-0.1c1.2-0.1,2.3,0.2,3.2,0.7
				c0.3,0.2,0.6,0.4,0.9,0.6c0.2,0.2,0.4,0.5,0.6,0.7c0.7,0.9,1,2.1,1,3.4v0c0,1.8-0.6,3.5-1.8,4.9l-2.2-1.8l1.9,2.1
				c-1,1-2.4,1.7-3.8,2c-0.1,0-0.1,0-0.2,0.1C146.7,345.3,146.4,345.3,146.1,345.4z"/>
		</g>
		<g>
			<path class="st0" d="M142.7,335C142.7,335,142.7,335.1,142.7,335c-0.2,0.1-0.2,0.2-0.3,0.2l1.8,1.5L142.7,335z M142.7,335
				C142.7,335,142.7,335.1,142.7,335c-0.2,0.1-0.2,0.2-0.3,0.2l1.8,1.5L142.7,335z M142.7,335C142.7,335,142.7,335.1,142.7,335
				c-0.2,0.1-0.2,0.2-0.3,0.2l1.8,1.5L142.7,335z M142.7,335C142.7,335,142.7,335.1,142.7,335c-0.2,0.1-0.2,0.2-0.3,0.2l1.8,1.5
				L142.7,335z M142.7,335C142.7,335,142.7,335.1,142.7,335c-0.2,0.1-0.2,0.2-0.3,0.2l1.8,1.5L142.7,335z M142.7,335
				C142.7,335,142.7,335.1,142.7,335c-0.2,0.1-0.2,0.2-0.3,0.2l1.8,1.5L142.7,335z M142.7,335C142.7,335,142.7,335.1,142.7,335
				c-0.2,0.1-0.2,0.2-0.3,0.2l1.8,1.5L142.7,335z M150.3,327.6c-0.4-1.4-1-2.7-1.9-4c-1.1-1.8-2.6-3.2-4.4-4.2
				c-1.2-0.7-2.5-1.2-3.9-1.4c-0.4-0.1-0.8-0.1-1.2-0.1c-0.5,0-0.9,0-1.4,0c-0.1,0-0.2,0-0.3,0c-0.4,0-0.9,0.1-1.3,0.2
				c-0.1,0-0.2,0-0.2,0c-1.1,0.2-2.1,0.7-3.1,1.2c0.5,0.1,0.9,0.4,1.3,0.7c0.1,0.1,0.1,0.1,0.2,0.2c0,0,0.1,0.1,0.1,0.1
				c0.9,1.2,1.1,2.5,0.2,3.1c-0.8,0.8-2,0.4-3-0.3c-0.1-0.1-0.2-0.1-0.2-0.2c0,0-0.1-0.1-0.1-0.2c-0.3-0.4-0.6-0.9-0.7-1.3
				c0-0.2-0.1-0.3-0.1-0.4c-0.4,0.4-0.8,0.8-1.1,1.3c-0.8,1.1-1.4,2.2-1.8,3.6v0c-0.1,0.3-0.2,0.6-0.2,0.8c0,0.1,0,0.1,0,0.2
				c-0.1,0.6-0.2,1.3-0.2,1.9c0,0.9,0.1,1.8,0.3,2.8c0.4,1.8,1.2,3.5,2.3,5.1c1,1.4,2.2,2.5,3.6,3.4c0.5,0.3,1,0.6,1.6,0.9
				c1.6,0.8,3.3,1.2,5.1,1.2c0.2,0,0.5,0,0.7,0c1.4-0.1,2.7-0.4,4-1c0.1,0,0.1,0,0.1-0.1c0.2-0.1,0.4-0.2,0.6-0.3
				c-0.1,0-0.1-0.1-0.2-0.2c-1.4-1.2-1.8-3-0.8-3.8c0.8-1,2.4-0.9,3.8,0.3c0.1,0.1,0.2,0.1,0.2,0.2c0.1,0.1,0.2,0.2,0.3,0.4
				c0.5-0.6,0.8-1.3,1.2-2c0,0,0-0.1,0-0.1c0.3-0.8,0.6-1.6,0.7-2.5C150.9,331.3,150.8,329.4,150.3,327.6z M142.7,335
				C142.7,335,142.7,335.1,142.7,335c-0.2,0.1-0.2,0.2-0.3,0.2c-0.3,0.2-0.6,0.4-1,0.5c-1.4,0.7-3,0.9-4.5,0.6
				c-0.8-0.1-1.6-0.4-2.3-0.8c-0.7-0.4-1.3-1-1.8-1.6c-0.1-0.2-0.2-0.4-0.3-0.7c-0.6-1.4-0.6-3.1,0-4.7c0.5-1.3,1.4-2.6,2.6-3.5
				l1.5,2l0.4,0.6c0,0,0.1-0.1,0.2-0.1c0,0,0.1,0,0.1,0l-0.4-0.6l-1.4-2.1c0,0,0,0,0.1,0c0,0,0.1-0.1,0.2-0.1
				c1.1-0.7,2.3-1.1,3.5-1.2c0.4,0,0.8,0,1.1,0c1.4,0.1,2.8,0.6,3.7,1.5c0.2,0.2,0.4,0.4,0.6,0.7c0,0,0,0,0,0.1l-1.2,0.9L143,327
				l-0.3,0.2l-2,1.5l2.2-1.3l0.6-0.3l0.4-0.2l1.2-0.7c0.1,0.2,0.2,0.4,0.3,0.6c0.4,1.1,0.6,2.4,0.3,3.7c0,0.2-0.1,0.5-0.2,0.7
				c-0.2,0.7-0.5,1.4-1,2C144,333.8,143.4,334.5,142.7,335z M142.7,335C142.7,335,142.7,335.1,142.7,335c-0.2,0.1-0.2,0.2-0.3,0.2
				l1.8,1.5L142.7,335z M142.7,335C142.7,335,142.7,335.1,142.7,335c-0.2,0.1-0.2,0.2-0.3,0.2l1.8,1.5L142.7,335z M142.7,335
				C142.7,335,142.7,335.1,142.7,335c-0.2,0.1-0.2,0.2-0.3,0.2l1.8,1.5L142.7,335z M142.7,335C142.7,335,142.7,335.1,142.7,335
				c-0.2,0.1-0.2,0.2-0.3,0.2l1.8,1.5L142.7,335z M142.7,335C142.7,335,142.7,335.1,142.7,335c-0.2,0.1-0.2,0.2-0.3,0.2l1.8,1.5
				L142.7,335z M142.7,335C142.7,335,142.7,335.1,142.7,335c-0.2,0.1-0.2,0.2-0.3,0.2l1.8,1.5L142.7,335z"/>
		</g>
		<g>
			<path class="st0" d="M129.8,318.3l-1.4-1.8c0,0,0.1-0.1,0.1-0.1l-0.1-0.1c0,0.1,0,0.2-0.1,0.2c0,0.1-0.1,0.2-0.2,0.3l0.8,0.9
				l1.9,2L129.8,318.3z M136.8,326.9c-0.1,0.1-0.2,0.1-0.3,0.2l0.4,0.6c0,0,0.1-0.1,0.2-0.1c0,0,0.1,0,0.1,0L136.8,326.9z
				 M134.5,323.5L134.5,323.5l1,1.2c0,0,0.1-0.1,0.2-0.1L134.5,323.5z M136.8,326.9c-0.1,0.1-0.2,0.1-0.3,0.2l0.4,0.6
				c0,0,0.1-0.1,0.2-0.1c0,0,0.1,0,0.1,0L136.8,326.9z M134.5,323.5L134.5,323.5l1,1.2c0,0,0.1-0.1,0.2-0.1L134.5,323.5z
				 M129.8,318.3l-1.4-1.8c0,0,0.1-0.1,0.1-0.1l-0.1-0.1c0,0.1,0,0.2-0.1,0.2c0,0.1-0.1,0.2-0.2,0.3l0.8,0.9l1.9,2L129.8,318.3z
				 M136.8,326.9c-0.1,0.1-0.2,0.1-0.3,0.2l0.4,0.6c0,0,0.1-0.1,0.2-0.1c0,0,0.1,0,0.1,0L136.8,326.9z M134.5,323.5L134.5,323.5
				l1,1.2c0,0,0.1-0.1,0.2-0.1L134.5,323.5z M129.8,318.3l-1.4-1.8c0,0,0.1-0.1,0.1-0.1l-0.1-0.1c0,0.1,0,0.2-0.1,0.2
				c0,0.1-0.1,0.2-0.2,0.3l0.8,0.9l1.9,2L129.8,318.3z M136.8,326.9c-0.1,0.1-0.2,0.1-0.3,0.2l0.4,0.6c0,0,0.1-0.1,0.2-0.1
				c0,0,0.1,0,0.1,0L136.8,326.9z M134.5,323.5L134.5,323.5l1,1.2c0,0,0.1-0.1,0.2-0.1L134.5,323.5z M129.8,318.3l-1.4-1.8
				c0,0,0.1-0.1,0.1-0.1l-0.1-0.1c0,0.1,0,0.2-0.1,0.2c0,0.1-0.1,0.2-0.2,0.3l0.8,0.9l1.9,2L129.8,318.3z M136.8,326.9
				c-0.1,0.1-0.2,0.1-0.3,0.2l0.4,0.6c0,0,0.1-0.1,0.2-0.1c0,0,0.1,0,0.1,0L136.8,326.9z M134.5,323.5L134.5,323.5l1,1.2
				c0,0,0.1-0.1,0.2-0.1L134.5,323.5z M129.8,318.3l-1.4-1.8c0,0,0.1-0.1,0.1-0.1l-0.1-0.1c0,0.1,0,0.2-0.1,0.2
				c0,0.1-0.1,0.2-0.2,0.3l0.8,0.9l1.9,2L129.8,318.3z M136.8,326.9c-0.1,0.1-0.2,0.1-0.3,0.2l0.4,0.6c0,0,0.1-0.1,0.2-0.1
				c0,0,0.1,0,0.1,0L136.8,326.9z M134.5,323.5L134.5,323.5l1,1.2c0,0,0.1-0.1,0.2-0.1L134.5,323.5z M129.8,318.3l-1.4-1.8
				c0,0,0.1-0.1,0.1-0.1l-0.1-0.1c0,0.1,0,0.2-0.1,0.2c0,0.1-0.1,0.2-0.2,0.3l0.8,0.9l1.9,2L129.8,318.3z M136.8,326.9
				c-0.1,0.1-0.2,0.1-0.3,0.2l0.4,0.6c0,0,0.1-0.1,0.2-0.1c0,0,0.1,0,0.1,0L136.8,326.9z M134.5,323.5L134.5,323.5l1,1.2
				c0,0,0.1-0.1,0.2-0.1L134.5,323.5z M128.4,316.5c0,0,0.1-0.1,0.1-0.1l-0.1-0.1C128.4,316.5,128.3,316.6,128.4,316.5
				c-0.1,0.2-0.2,0.3-0.3,0.4l0.8,0.9l1.9,2l-1.1-1.4L128.4,316.5z M144,319.4c-0.5-1.8-1.4-3.6-2.7-5.2c-0.3-0.3-0.6-0.6-0.9-0.9
				c-1.3-1.1-2.6-2-4.1-2.5c-1.6-0.6-3.2-0.9-4.8-0.8c-1.9,0.1-3.7,0.6-5.3,1.6c-0.5,0.3-1,0.7-1.5,1.1c-2.1,1.8-3.3,4.3-3.6,7.1
				c0,0.5-0.1,1,0,1.5c0,0.2,0,0.3,0,0.5v0c0.1,1.3,0.4,2.6,1,3.8c0.5,1.2,1.2,2.3,2.1,3.4c0.2,0.3,0.5,0.6,0.8,0.8
				c0.7,0.7,1.5,1.2,2.3,1.7c0.7,0.4,1.4,0.7,2.1,1c1,0.4,2.1,0.6,3.1,0.7c0.3,0,0.6,0,1,0c0.7,0,1.4-0.1,2-0.2
				c0.9-0.2,1.8-0.5,2.7-0.9c-0.4-0.3-0.7-0.6-1.1-1c-0.1-0.1-0.1-0.2-0.2-0.3c-0.8-1.2-0.7-2.6,0-3.2c0,0,0.1-0.1,0.2-0.1
				c0,0,0.1,0,0.1,0c0.9-0.6,2.1-0.3,2.9,0.7c0.2,0.2,0.3,0.4,0.5,0.6c0.3,0.4,0.5,0.9,0.6,1.3c0.7-0.7,1.3-1.4,1.7-2.3
				c0.1-0.2,0.2-0.4,0.4-0.6c0-0.1,0.1-0.1,0.1-0.2c0-0.1,0.1-0.2,0.1-0.3c0.2-0.5,0.4-1,0.5-1.6c0.1-0.5,0.2-1,0.3-1.5
				C144.5,322.1,144.4,320.8,144,319.4z M137.4,326.4l-1.7-1.7l-1.1-1.1l0.1,0.1l0.9,1.2l1.5,2c-0.1,0.1-0.1,0.1-0.2,0.2
				c-0.1,0.1-0.2,0.1-0.3,0.2c-1.3,0.9-2.7,1.4-4.1,1.5c-1.8,0.1-3.5-0.4-4.6-1.4l0.5-0.6l3.1-3.4c-0.1-0.1-0.2-0.1-0.2-0.2
				c0,0-0.1-0.1-0.1-0.2l-3.6,3.1v0l-0.5,0.4c-0.6-0.8-1.1-1.8-1.2-3c-0.1-0.5-0.1-1.1,0-1.7c0.2-1.6,0.8-3.1,1.9-4.3
				c-0.5,0.2-1.2,0.2-1.9-0.2c0,0-0.1,0-0.1-0.1c-0.1,0-0.2-0.1-0.2-0.1c-1.1-0.6-1.5-1.5-1.2-2.3c0.4-0.6,1.4-0.8,2.6-0.4
				c1.1,0.6,1.7,1.5,1.5,2.2c0,0.1,0,0.2-0.1,0.2c0,0.1-0.1,0.2-0.2,0.3l0.8,0.9l1.9,2l-1.1-1.4l-1.4-1.8c0,0,0.1-0.1,0.1-0.1
				c1-0.9,2.2-1.4,3.4-1.6c0.5-0.1,1-0.2,1.5-0.2c1.6,0,3.1,0.5,4.1,1.4l-1.8,1.9l-0.1,0.1l-1.8,1.9c0.1,0.1,0.1,0.1,0.2,0.2
				c0,0,0.1,0.1,0.1,0.1l2.1-1.8l0.8-0.7l0.4-0.3l0.7-0.6c0.2,0.3,0.5,0.6,0.6,1c0.6,1.1,0.8,2.4,0.7,3.7c0,0.2-0.1,0.5-0.1,0.7
				c-0.1,0.4-0.2,0.8-0.3,1.2C138.8,324.6,138.2,325.6,137.4,326.4z M129.8,318.3l-1.4-1.8c0,0,0.1-0.1,0.1-0.1l-0.1-0.1
				c0,0.1,0,0.2-0.1,0.2c0,0.1-0.1,0.2-0.2,0.3l0.8,0.9l1.9,2L129.8,318.3z M134.5,323.5L134.5,323.5l1,1.2c0,0,0.1-0.1,0.2-0.1
				L134.5,323.5z M136.8,326.9c-0.1,0.1-0.2,0.1-0.3,0.2l0.4,0.6c0,0,0.1-0.1,0.2-0.1c0,0,0.1,0,0.1,0L136.8,326.9z M129.8,318.3
				l-1.4-1.8c0,0,0.1-0.1,0.1-0.1l-0.1-0.1c0,0.1,0,0.2-0.1,0.2c0,0.1-0.1,0.2-0.2,0.3l0.8,0.9l1.9,2L129.8,318.3z M134.5,323.5
				L134.5,323.5l1,1.2c0,0,0.1-0.1,0.2-0.1L134.5,323.5z M136.8,326.9c-0.1,0.1-0.2,0.1-0.3,0.2l0.4,0.6c0,0,0.1-0.1,0.2-0.1
				c0,0,0.1,0,0.1,0L136.8,326.9z M129.8,318.3l-1.4-1.8c0,0,0.1-0.1,0.1-0.1l-0.1-0.1c0,0.1,0,0.2-0.1,0.2c0,0.1-0.1,0.2-0.2,0.3
				l0.8,0.9l1.9,2L129.8,318.3z M134.5,323.5L134.5,323.5l1,1.2c0,0,0.1-0.1,0.2-0.1L134.5,323.5z M136.8,326.9
				c-0.1,0.1-0.2,0.1-0.3,0.2l0.4,0.6c0,0,0.1-0.1,0.2-0.1c0,0,0.1,0,0.1,0L136.8,326.9z M129.8,318.3l-1.4-1.8c0,0,0.1-0.1,0.1-0.1
				l-0.1-0.1c0,0.1,0,0.2-0.1,0.2c0,0.1-0.1,0.2-0.2,0.3l0.8,0.9l1.9,2L129.8,318.3z M134.5,323.5L134.5,323.5l1,1.2
				c0,0,0.1-0.1,0.2-0.1L134.5,323.5z M136.8,326.9c-0.1,0.1-0.2,0.1-0.3,0.2l0.4,0.6c0,0,0.1-0.1,0.2-0.1c0,0,0.1,0,0.1,0
				L136.8,326.9z M129.8,318.3l-1.4-1.8c0,0,0.1-0.1,0.1-0.1l-0.1-0.1c0,0.1,0,0.2-0.1,0.2c0,0.1-0.1,0.2-0.2,0.3l0.8,0.9l1.9,2
				L129.8,318.3z M134.5,323.5L134.5,323.5l1,1.2c0,0,0.1-0.1,0.2-0.1L134.5,323.5z M136.8,326.9c-0.1,0.1-0.2,0.1-0.3,0.2l0.4,0.6
				c0,0,0.1-0.1,0.2-0.1c0,0,0.1,0,0.1,0L136.8,326.9z M129.8,318.3l-1.4-1.8c0,0,0.1-0.1,0.1-0.1l-0.1-0.1c0,0.1,0,0.2-0.1,0.2
				c0,0.1-0.1,0.2-0.2,0.3l0.8,0.9l1.9,2L129.8,318.3z M134.5,323.5L134.5,323.5l1,1.2c0,0,0.1-0.1,0.2-0.1L134.5,323.5z
				 M136.8,326.9c-0.1,0.1-0.2,0.1-0.3,0.2l0.4,0.6c0,0,0.1-0.1,0.2-0.1c0,0,0.1,0,0.1,0L136.8,326.9z"/>
		</g>
		<g>
			<path class="st0" d="M128.1,316.9c0,0.1-0.1,0.1-0.2,0.2l1,0.7L128.1,316.9z M128.1,316.9c0,0.1-0.1,0.1-0.2,0.2l1,0.7
				L128.1,316.9z M128.1,316.9c0,0.1-0.1,0.1-0.2,0.2l1,0.7L128.1,316.9z M128.1,316.9c0,0.1-0.1,0.1-0.2,0.2l1,0.7L128.1,316.9z
				 M136.3,310.8c-1.1-1.9-2.8-3.6-5.1-4.8c-0.3-0.2-0.7-0.3-1.1-0.5c-5.1-1.9-10.6-0.4-13.5,3.7c0,0-0.1,0.1-0.1,0.2
				c-0.3,0.5-0.6,1-0.8,1.5c-1,2.2-1.1,4.6-0.6,6.8c0.8,3.1,2.9,5.9,6.1,7.6c0.3,0.2,0.5,0.3,0.8,0.4c1.1,0.5,2.2,0.8,3.4,1
				c0.5,0.1,1,0.1,1.5,0.1c0.1,0,0.2,0,0.3,0c0.4,0,0.8,0,1.1-0.1c0.6-0.1,1.2-0.2,1.8-0.4c1.7-0.5,3.2-1.4,4.4-2.6c0,0,0,0,0,0
				c0.9-0.9,1.6-1.9,2.1-3c0.2-0.4,0.4-0.8,0.5-1.2c0.2-0.5,0.3-1,0.4-1.6c0-0.1,0-0.2,0-0.3C138,315.2,137.5,312.9,136.3,310.8z
				 M134.5,323.5c-0.8,0.8-2,0.4-3-0.3c-0.1-0.1-0.2-0.1-0.2-0.2c0,0-0.1-0.1-0.1-0.2c-0.3-0.4-0.6-0.9-0.7-1.3
				c-0.4,0.3-0.8,0.6-1.2,0.8c-1.1,0.6-2.3,1-3.5,1c-0.8,0-1.5-0.1-2.2-0.4l2.2-5.9c0,0-0.1,0-0.1-0.1c-0.1,0-0.2-0.1-0.2-0.1
				l-1.6,2.9l-1.6,2.5c-0.5-0.3-0.9-0.6-1.3-1c-1.9-2-2.7-5.4-1.2-8.6c0.5-1,1.2-1.9,2-2.6c0.8-0.7,1.8-1.3,2.9-1.6
				c1.8-0.6,3.7-0.4,5.3,0.4c0.5,0.3,1,0.7,1.5,1.2c1.2,1.2,1.8,2.9,1.9,4.7c0,0.4,0,0.9,0,1.3c-0.1,0.8-0.3,1.6-0.6,2.4l-4.3-1.9
				l-0.1-0.1c0,0.1,0,0.2-0.1,0.2c0,0.1-0.1,0.2-0.2,0.3c0,0.1-0.1,0.1-0.2,0.2l1,0.7l0.8,0.6l1.6,1.1c0.4-0.1,0.8-0.1,1.2,0
				c0.5,0.1,0.9,0.4,1.3,0.7c0.1,0.1,0.1,0.1,0.2,0.2c0,0,0.1,0.1,0.1,0.1C135.2,321.6,135.4,322.9,134.5,323.5z M128.1,316.9
				c0,0.1-0.1,0.1-0.2,0.2l1,0.7L128.1,316.9z M128.1,316.9c0,0.1-0.1,0.1-0.2,0.2l1,0.7L128.1,316.9z M128.1,316.9
				c0,0.1-0.1,0.1-0.2,0.2l1,0.7L128.1,316.9z"/>
		</g>
	</g>
	<path class="st0" d="M121.1,310.8c0,0,13.2,0.6,20.3,8.4c7.1,7.9,19,16.3,31.2,16.3c12.2,0,22.3,5.9,19.3,11.6s1.9,11.5-7.6,13.3
		c-9.5,1.8-23.5,1.6-31.3-1.5c-7.8-3.1-29.1-20.3-32-32.9c-2.9-12.5-2.3-15.3-0.7-15.2"/>
	<ellipse transform="matrix(0.981 -0.1938 0.1938 0.981 -64.5567 41.2461)" class="st1" cx="178.6" cy="350.6" rx="11.2" ry="8.3"/>
	
		<ellipse transform="matrix(0.3746 -0.9272 0.9272 0.3746 -224.1875 359.064)" class="st1" cx="154.1" cy="345.7" rx="7.9" ry="10.6"/>
	
		<ellipse transform="matrix(0.7413 -0.6711 0.6711 0.7413 -187.6627 177.8562)" class="st1" cx="136.9" cy="332.4" rx="5.7" ry="7.7"/>
	
		<ellipse transform="matrix(0.7413 -0.6711 0.6711 0.7413 -181.2191 167.3377)" class="st1" cx="126.5" cy="318.8" rx="3.8" ry="5.1"/>
</g>
</svg>
