<svg xmlns="http://www.w3.org/2000/svg" viewBox="0 0 448 512" enable-background="new 0 0 448 512"><style type="text/css">.st0{fill:#FFFFFF;} .st1{fill:#231F20;}</style><path class="st0" d="M222 97.3c-43.9 0-84.5 16.3-114.2 45.9-29.8 29.7-46.2 70.2-46.2 114 0 71.4 44.6 134.2 111 156.5.4.1.9.3 1.3.3 7.8 1.4 12.9-1.2 15.7-3.6 3.8-3.1 5.9-7.9 5.9-13.1v-9.4c-.1-8.5-.1-20.1-.1-28.5 0-2.8-1.3-5.4-3.4-7.2.2-.3.5-.6.6-.9 1.6-2.4 2.1-5.3 1.6-8.1v-.2c.8-1.2 1.3-2.5 1.5-3.9.9-6.6 3.4-12.1 6.9-15.2 2.7-2.5 3.8-6.3 2.7-9.8-1.1-3.5-4.2-6-7.8-6.4-32.7-3.6-61-6.8-61-58.9 0-14.4 3.6-20.7 12.1-30.1 2.4-2.7 3.1-6.5 1.7-9.8-.6-1.4-5-13-.3-29.4 6.9 1.5 19.7 7.7 30.5 15.3 2.3 1.6 5.2 2.1 7.9 1.3 11.4-3.2 23.9-4.9 36.3-4.9s24.9 1.7 36.3 4.9c2.7.8 5.6.3 7.9-1.3 10.9-7.6 23.6-13.8 30.5-15.3 4.5 15.8.6 27.1-.3 29.5-1.3 3.3-.6 7.1 1.8 9.7 9.2 10.1 13.5 16.4 13.5 30.1 0 52-29 55.2-62.6 58.9-3.7.4-6.8 3-7.9 6.5-1.1 3.6 0 7.4 2.9 9.8 2.2 1.9 7.3 7.7 7.3 21.5 0 13.9-.1 30-.1 40.7 0 5.3-.1 9.2-.1 10.9 0 5.1 2.2 9.9 6 13.1 2.3 1.9 6 4 11.4 4 1.3 0 2.8-.1 4.3-.4l1.3-.3c65.7-21.9 109.7-84.8 109.6-156.5-.2-89.4-72.4-159.7-164.5-159.7zm46.8 227.4c30.6-4.6 64.1-16.8 64.1-75.6 0-18.2-6.4-28.8-14.8-38.6 2.2-8.6 4.1-24.2-3.4-43.2-1-2.6-3.2-4.6-5.9-5.5-14.1-4.4-36.6 8.6-47.1 15.5-11.8-2.9-24.5-4.5-37.1-4.5s-25.3 1.5-37.1 4.5c-10.5-6.9-33-19.9-47.1-15.5-2.7.8-4.9 2.8-5.9 5.5-7.6 19.1-5.5 34.9-3.4 43.2-8.5 10.4-13.4 20.9-13.4 38.5 0 58.8 32.7 71 62.7 75.6-.8 2.1-1.5 4.3-2.1 6.6-9.5 3.2-21 2.9-28.8-10.8-10.8-18.8-30.3-20.5-31.1-20.6h-.6c-8.7-.1-14.1 2.8-15.9 8.6-1.9 6 1.4 12.4 9.5 18 .4.3.9.6 1.4.8 4.5 2.1 9.9 11.5 12.3 17.3 5 14.7 18.2 23.8 37.4 25.7 5.2.5 10.2.4 14.3.1 0 6.2.1 12.7.1 18v7.4c-57.9-20.1-96.7-75.5-96.7-138.3 0-80.6 61-141.3 141.8-141.3 81.7 0 145.7 62.1 145.7 141.3.1 63.1-38.2 118.4-95.3 138.2v-8.8c.1-10.7.1-26.9.1-40.8 0-8.9-1.6-15.9-3.7-21.3zm-83.8 20.7c0 1.1-.9 2-2.4 2.4l-.3.1h-.5c-1.6.2-3.1-.5-3.3-1.6-.2-1.4 1-2.6 2.8-3h.7c1.5 0 2.8.7 3 1.8v.3zm-15.7-.5h.7c1.7-.1 3.4.9 3.4 2.2 0 1.2-1.4 2.2-3.3 2.2h-.4l-.2-.7-.1.5c0 .1 0 .1-.1.2-1.6-.1-2.7-1-2.7-2.2 0-1 1.1-2 2.7-2.2zm-24-4.2c-.1 0-.1-.1-.2-.2-1.4-1.2-1.8-3-.8-3.8.8-1 2.4-.9 3.8.3.1.1.2.1.2.2.1.1.2.2.3.4 1 1.2 1.2 2.8.5 3.4-.8.9-2.3.9-3.6-.2 0-.2.1-.3.2-.4-.2.1-.3.2-.4.3zm15.3 5.4c-.3 1.1-1.8 1.6-3.3 1.4-.1 0-.3 0-.4-.1-.1 0-.1 0-.2-.1h-.1l-.5-.1c-1.5-.5-2.4-1.8-2-2.8.4-1.2 2.2-1.8 3.8-1.4h.2l.3.1c1.6.6 2.6 1.9 2.2 3zm-20-17.4c.3.4.5.9.6 1.3.3 1 .1 2-.6 2.5-.6.4-1.5.2-2.4-.4-.4-.3-.7-.6-1.1-1l-.2-.3c-.8-1.2-.7-2.6 0-3.2 0 0 .1-.1.2-.1h.1c.9-.6 2.1-.3 2.9.7.2.1.4.3.5.5zm-9.3-5.7s-.1-.1-.1-.2c-.3-.4-.6-.9-.7-1.3 0-.2-.1-.3-.1-.4-.1-.6.1-1 .5-1.4l.5-.3c.4-.1.8-.1 1.2 0 .5.1.9.4 1.3.7l.2.2.1.1c.9 1.2 1.1 2.5.2 3.1-.8.8-2 .4-3-.3.1-.1 0-.2-.1-.2zm-5.5-5.9s-.1 0-.1-.1c-.1 0-.2-.1-.2-.1-1.1-.6-1.5-1.5-1.2-2.3.4-.6 1.4-.8 2.6-.4 1.1.6 1.7 1.5 1.5 2.2 0 .1 0 .2-.1.2 0 .1-.1.2-.2.3 0 .1-.1.1-.2.2l-.3.2c-.4.2-1.1.1-1.8-.2zm58.3 33.4s-.5.1-1.2.2l-.3-1.3c1.7-.5 3.4-1.1 5.1-1.8-.2 1-.6 1.9-1.2 2.7-.8 0-1.6 0-2.4.2zm37.9-253.2c-43.9 0-84.5 16.3-114.2 45.9-29.8 29.7-46.2 70.2-46.2 114 0 71.4 44.6 134.2 111 156.5.4.1.9.3 1.3.3 7.8 1.4 12.9-1.2 15.7-3.6 3.8-3.1 5.9-7.9 5.9-13.1v-9.4c-.1-8.5-.1-20.1-.1-28.5 0-2.8-1.3-5.4-3.4-7.2.2-.3.5-.6.6-.9 1.6-2.4 2.1-5.3 1.6-8.1v-.2c.8-1.2 1.3-2.5 1.5-3.9.9-6.6 3.4-12.1 6.9-15.2 2.7-2.5 3.8-6.3 2.7-9.8-1.1-3.5-4.2-6-7.8-6.4-32.7-3.6-61-6.8-61-58.9 0-14.4 3.6-20.7 12.1-30.1 2.4-2.7 3.1-6.5 1.7-9.8-.6-1.4-5-13-.3-29.4 6.9 1.5 19.7 7.7 30.5 15.3 2.3 1.6 5.2 2.1 7.9 1.3 11.4-3.2 23.9-4.9 36.3-4.9s24.9 1.7 36.3 4.9c2.7.8 5.6.3 7.9-1.3 10.9-7.6 23.6-13.8 30.5-15.3 4.5 15.8.6 27.1-.3 29.5-1.3 3.3-.6 7.1 1.8 9.7 9.2 10.1 13.5 16.4 13.5 30.1 0 52-29 55.2-62.6 58.9-3.7.4-6.8 3-7.9 6.5-1.1 3.6 0 7.4 2.9 9.8 2.2 1.9 7.3 7.7 7.3 21.5 0 13.9-.1 30-.1 40.7 0 5.3-.1 9.2-.1 10.9 0 5.1 2.2 9.9 6 13.1 2.3 1.9 6 4 11.4 4 1.3 0 2.8-.1 4.3-.4l1.3-.3c65.7-21.9 109.7-84.8 109.6-156.5-.2-89.4-72.4-159.7-164.5-159.7zm46.8 227.4c30.6-4.6 64.1-16.8 64.1-75.6 0-18.2-6.4-28.8-14.8-38.6 2.2-8.6 4.1-24.2-3.4-43.2-1-2.6-3.2-4.6-5.9-5.5-14.1-4.4-36.6 8.6-47.1 15.5-11.8-2.9-24.5-4.5-37.1-4.5s-25.3 1.5-37.1 4.5c-10.5-6.9-33-19.9-47.1-15.5-2.7.8-4.9 2.8-5.9 5.5-7.6 19.1-5.5 34.9-3.4 43.2-8.5 10.4-13.4 20.9-13.4 38.5 0 58.8 32.7 71 62.7 75.6-.8 2.1-1.5 4.3-2.1 6.6-9.5 3.2-21 2.9-28.8-10.8-10.8-18.8-30.3-20.5-31.1-20.6h-.6c-8.7-.1-14.1 2.8-15.9 8.6-1.9 6 1.4 12.4 9.5 18 .4.3.9.6 1.4.8 4.5 2.1 9.9 11.5 12.3 17.3 5 14.7 18.2 23.8 37.4 25.7 5.2.5 10.2.4 14.3.1 0 6.2.1 12.7.1 18v7.4c-57.9-20.1-96.7-75.5-96.7-138.3 0-80.6 61-141.3 141.8-141.3 81.7 0 145.7 62.1 145.7 141.3.1 63.1-38.2 118.4-95.3 138.2v-8.8c.1-10.7.1-26.9.1-40.8 0-8.9-1.6-15.9-3.7-21.3zm-83.8 20.7c0 1.1-.9 2-2.4 2.4l-.3.1h-.5c-1.6.2-3.1-.5-3.3-1.6-.2-1.4 1-2.6 2.8-3h.7c1.5 0 2.8.7 3 1.8v.3zm-15.7-.5h.7c1.7-.1 3.4.9 3.4 2.2 0 1.2-1.4 2.2-3.3 2.2h-.4l-.2-.7-.1.5c0 .1 0 .1-.1.2-1.6-.1-2.7-1-2.7-2.2 0-1 1.1-2 2.7-2.2zm-24-4.2c-.1 0-.1-.1-.2-.2-1.4-1.2-1.8-3-.8-3.8.8-1 2.4-.9 3.8.3.1.1.2.1.2.2.1.1.2.2.3.4 1 1.2 1.2 2.8.5 3.4-.8.9-2.3.9-3.6-.2 0-.2.1-.3.2-.4-.2.1-.3.2-.4.3zm15.3 5.4c-.3 1.1-1.8 1.6-3.3 1.4-.1 0-.3 0-.4-.1-.1 0-.1 0-.2-.1h-.1l-.5-.1c-1.5-.5-2.4-1.8-2-2.8.4-1.2 2.2-1.8 3.8-1.4h.2l.3.1c1.6.6 2.6 1.9 2.2 3zm-20-17.4c.3.4.5.9.6 1.3.3 1 .1 2-.6 2.5-.6.4-1.5.2-2.4-.4-.4-.3-.7-.6-1.1-1l-.2-.3c-.8-1.2-.7-2.6 0-3.2 0 0 .1-.1.2-.1h.1c.9-.6 2.1-.3 2.9.7.2.1.4.3.5.5zm-9.3-5.7s-.1-.1-.1-.2c-.3-.4-.6-.9-.7-1.3 0-.2-.1-.3-.1-.4-.1-.6.1-1 .5-1.4l.5-.3c.4-.1.8-.1 1.2 0 .5.1.9.4 1.3.7l.2.2.1.1c.9 1.2 1.1 2.5.2 3.1-.8.8-2 .4-3-.3.1-.1 0-.2-.1-.2zm-5.5-5.9s-.1 0-.1-.1c-.1 0-.2-.1-.2-.1-1.1-.6-1.5-1.5-1.2-2.3.4-.6 1.4-.8 2.6-.4 1.1.6 1.7 1.5 1.5 2.2 0 .1 0 .2-.1.2 0 .1-.1.2-.2.3 0 .1-.1.1-.2.2l-.3.2c-.4.2-1.1.1-1.8-.2zm58.3 33.4s-.5.1-1.2.2l-.3-1.3c1.7-.5 3.4-1.1 5.1-1.8-.2 1-.6 1.9-1.2 2.7-.8 0-1.6 0-2.4.2zm204.1-303.4h-328.4c-24.7 0-44.8 20.1-44.8 44.8v328.3c0 24.7 20 44.8 44.8 44.8h328.3c24.7 0 44.8-20.1 44.8-44.8v-328.4c0-24.7-20-44.7-44.7-44.7zm35.4 373.1c0 19.5-15.9 35.4-35.4 35.4h-328.4c-19.5 0-35.4-15.9-35.4-35.4v-328.4c0-19.5 15.9-35.4 35.4-35.4h328.3c19.5 0 35.4 15.9 35.4 35.4v328.4zm-201.6-322.9c-43.9 0-84.5 16.3-114.2 45.9-29.8 29.7-46.2 70.2-46.2 114 0 71.4 44.6 134.2 111 156.5.4.1.9.3 1.3.3 7.8 1.4 12.9-1.2 15.7-3.6 3.8-3.1 5.9-7.9 5.9-13.1v-9.4c-.1-8.5-.1-20.1-.1-28.5 0-2.8-1.3-5.4-3.4-7.2.2-.3.5-.6.6-.9 1.6-2.4 2.1-5.3 1.6-8.1v-.2c.8-1.2 1.3-2.5 1.5-3.9.9-6.6 3.4-12.1 6.9-15.2 2.7-2.5 3.8-6.3 2.7-9.8-1.1-3.5-4.2-6-7.8-6.4-32.7-3.6-61-6.8-61-58.9 0-14.4 3.6-20.7 12.1-30.1 2.4-2.7 3.1-6.5 1.7-9.8-.6-1.4-5-13-.3-29.4 6.9 1.5 19.7 7.7 30.5 15.3 2.3 1.6 5.2 2.1 7.9 1.3 11.4-3.2 23.9-4.9 36.3-4.9s24.9 1.7 36.3 4.9c2.7.8 5.6.3 7.9-1.3 10.9-7.6 23.6-13.8 30.5-15.3 4.5 15.8.6 27.1-.3 29.5-1.3 3.3-.6 7.1 1.8 9.7 9.2 10.1 13.5 16.4 13.5 30.1 0 52-29 55.2-62.6 58.9-3.7.4-6.8 3-7.9 6.5-1.1 3.6 0 7.4 2.9 9.8 2.2 1.9 7.3 7.7 7.3 21.5 0 13.9-.1 30-.1 40.7 0 5.3-.1 9.2-.1 10.9 0 5.1 2.2 9.9 6 13.1 2.3 1.9 6 4 11.4 4 1.3 0 2.8-.1 4.3-.4l1.3-.3c65.7-21.9 109.7-84.8 109.6-156.5-.2-89.4-72.4-159.7-164.5-159.7zm46.8 227.4c30.6-4.6 64.1-16.8 64.1-75.6 0-18.2-6.4-28.8-14.8-38.6 2.2-8.6 4.1-24.2-3.4-43.2-1-2.6-3.2-4.6-5.9-5.5-14.1-4.4-36.6 8.6-47.1 15.5-11.8-2.9-24.5-4.5-37.1-4.5s-25.3 1.5-37.1 4.5c-10.5-6.9-33-19.9-47.1-15.5-2.7.8-4.9 2.8-5.9 5.5-7.6 19.1-5.5 34.9-3.4 43.2-8.5 10.4-13.4 20.9-13.4 38.5 0 58.8 32.7 71 62.7 75.6-.8 2.1-1.5 4.3-2.1 6.6-9.5 3.2-21 2.9-28.8-10.8-10.8-18.8-30.3-20.5-31.1-20.6h-.6c-8.7-.1-14.1 2.8-15.9 8.6-1.9 6 1.4 12.4 9.5 18 .4.3.9.6 1.4.8 4.5 2.1 9.9 11.5 12.3 17.3 5 14.7 18.2 23.8 37.4 25.7 5.2.5 10.2.4 14.3.1 0 6.2.1 12.7.1 18v7.4c-57.9-20.1-96.7-75.5-96.7-138.3 0-80.6 61-141.3 141.8-141.3 81.7 0 145.7 62.1 145.7 141.3.1 63.1-38.2 118.4-95.3 138.2v-8.8c.1-10.7.1-26.9.1-40.8 0-8.9-1.6-15.9-3.7-21.3zm-83.8 20.7c0 1.1-.9 2-2.4 2.4l-.3.1h-.5c-1.6.2-3.1-.5-3.3-1.6-.2-1.4 1-2.6 2.8-3h.7c1.5 0 2.8.7 3 1.8v.3zm-15.7-.5h.7c1.7-.1 3.4.9 3.4 2.2 0 1.2-1.4 2.2-3.3 2.2h-.4l-.2-.7-.1.5c0 .1 0 .1-.1.2-1.6-.1-2.7-1-2.7-2.2 0-1 1.1-2 2.7-2.2zm-24-4.2c-.1 0-.1-.1-.2-.2-1.4-1.2-1.8-3-.8-3.8.8-1 2.4-.9 3.8.3.1.1.2.1.2.2.1.1.2.2.3.4 1 1.2 1.2 2.8.5 3.4-.8.9-2.3.9-3.6-.2 0-.2.1-.3.2-.4-.2.1-.3.2-.4.3zm15.3 5.4c-.3 1.1-1.8 1.6-3.3 1.4-.1 0-.3 0-.4-.1-.1 0-.1 0-.2-.1h-.1l-.5-.1c-1.5-.5-2.4-1.8-2-2.8.4-1.2 2.2-1.8 3.8-1.4h.2l.3.1c1.6.6 2.6 1.9 2.2 3zm-20-17.4c.3.4.5.9.6 1.3.3 1 .1 2-.6 2.5-.6.4-1.5.2-2.4-.4-.4-.3-.7-.6-1.1-1l-.2-.3c-.8-1.2-.7-2.6 0-3.2 0 0 .1-.1.2-.1h.1c.9-.6 2.1-.3 2.9.7.2.1.4.3.5.5zm-9.3-5.7s-.1-.1-.1-.2c-.3-.4-.6-.9-.7-1.3 0-.2-.1-.3-.1-.4-.1-.6.1-1 .5-1.4l.5-.3c.4-.1.8-.1 1.2 0 .5.1.9.4 1.3.7l.2.2.1.1c.9 1.2 1.1 2.5.2 3.1-.8.8-2 .4-3-.3.1-.1 0-.2-.1-.2zm-5.5-5.9s-.1 0-.1-.1c-.1 0-.2-.1-.2-.1-1.1-.6-1.5-1.5-1.2-2.3.4-.6 1.4-.8 2.6-.4 1.1.6 1.7 1.5 1.5 2.2 0 .1 0 .2-.1.2 0 .1-.1.2-.2.3 0 .1-.1.1-.2.2l-.3.2c-.4.2-1.1.1-1.8-.2zm58.3 33.4s-.5.1-1.2.2l-.3-1.3c1.7-.5 3.4-1.1 5.1-1.8-.2 1-.6 1.9-1.2 2.7-.8 0-1.6 0-2.4.2zm204.1-312.8h-328.4c-29.8 0-54.1 24.3-54.1 54.1v328.3c0 29.8 24.3 54.1 54.1 54.1h328.3c29.8 0 54.1-24.3 54.1-54.1v-328.3c.1-29.8-24.2-54.1-54-54.1zm35.4 382.5c0 19.5-15.9 35.4-35.4 35.4h-328.4c-19.5 0-35.4-15.9-35.4-35.4v-328.4c0-19.5 15.9-35.4 35.4-35.4h328.3c19.5 0 35.4 15.9 35.4 35.4v328.4zm-201.6-313.5c-85.6 0-151.1 65-151.1 150.6 0 68.5 43.1 127 104.7 147.6 7.9 1.4 10.7-3.5 10.7-7.5 0-3.8-.2-24.9-.2-37.9 0 0-43.3 9.3-52.3-18.4 0 0-.2-.4-.5-1.2-.7-1.5-2-4.4-3.8-7.5-.7-1.2-1.5-2.5-2.3-3.7-.5-.7-1-1.5-1.6-2.2-1.3-1.8-2.8-3.4-4.4-4.8-1.4-1.3-3-2.3-4.5-3.1 0 0-.6-.4-1.4-1-3.1-2.4-9.3-8.3 1.5-8.5h.9s1.7.1 4.3.9c1.3.4 2.8.9 4.4 1.6 1.8.8 3.8 1.8 5.7 3.2.5.3 1 .7 1.5 1.1.8.6 1.6 1.3 2.4 2.1l.1.1.5.5.8.8c.8.9 1.6 1.8 2.4 2.9l.8 1.2 1 1.6c.4.7.8 1.4 1.2 2 0 0 0 .1.1.1l.1.2.2.3c.8 1.2 1.6 2.3 2.5 3.3l1.2 1.4c1 1.1 2.1 2.2 3.2 3.1h.1c1.1.9 2.1 1.7 3.2 2.3l2 1.2c1.2.6 2.5 1.2 3.8 1.6l.5.2c1.1.4 2.3.6 3.4.8 1.1.2 2.1.4 3.2.4 1.2.1 2.4.1 3.5.1h1.4c.3 0 .5 0 .8-.1h.2l1.8-.2h.2l.8-.1.7-.1c.3 0 .6-.1.8-.2l.8-.2c1.2-.2 2.3-.5 3.3-.9 1.2-.3 2.2-.7 3.2-1.1 1-.4 2-.8 2.8-1.2.2-1.1.3-2.1.6-3.1 1.7-8.2 5.3-14.1 9.3-17.7-34.5-3.8-69.3-8.9-69.3-68.2 0-17 4.7-25.5 14.5-36.4-1.7-4.1-6.9-20.6 1.6-42 13-4 42.6 16.7 42.6 16.7 12.3-3.5 25.6-5.2 38.8-5.2s26.5 1.8 38.8 5.2c0 0 29.7-20.7 42.6-16.7 8.5 21.5 3.2 38 1.6 42 9.9 10.9 16 19.4 16 36.4 0 59.6-36.4 64.4-70.9 68.2 5.7 4.8 10.5 14.1 10.5 28.6 0 20.8-.2 46.5-.2 51.6 0 4 2.9 8.9 10.7 7.5 61.6-20.5 103.3-79.2 103.3-147.6-.1-85.6-69.5-150.6-155.1-150.6zm50.3 288.9v-8.8c.1-10.7.1-26.9.1-40.8 0-8.8-1.6-15.8-3.7-21.2 30.6-4.6 64.1-16.8 64.1-75.6 0-18.2-6.4-28.8-14.8-38.6 2.2-8.6 4.1-24.2-3.4-43.2-1-2.6-3.2-4.6-5.9-5.5-14.1-4.4-36.6 8.6-47.1 15.5-11.8-2.9-24.5-4.5-37.1-4.5s-25.3 1.5-37.1 4.5c-10.5-6.9-33-19.9-47.1-15.5-2.7.8-4.9 2.8-5.9 5.5-7.6 19.1-5.5 34.9-3.4 43.2-8.5 10.4-13.4 20.9-13.4 38.5 0 58.8 32.7 71 62.7 75.6-.8 2.1-1.5 4.3-2.1 6.6-9.5 3.2-21 2.9-28.8-10.8-10.8-18.8-30.3-20.5-31.1-20.6h-.6c-8.7-.1-14.1 2.8-15.9 8.6-1.9 6 1.4 12.4 9.5 18 .4.3.9.6 1.4.8 4.5 2.1 9.9 11.5 12.3 17.3 5 14.7 18.2 23.8 37.4 25.7 5.2.5 10.2.4 14.3.1 0 6.2.1 12.7.1 18v7.4c-57.9-20.1-96.7-75.5-96.7-138.3 0-80.6 61-141.3 141.8-141.3 81.7 0 145.7 62.1 145.7 141.3.1 62.9-38.1 118.3-95.3 138.1zm-50.3-298.3c-43.9 0-84.5 16.3-114.2 45.9-29.8 29.7-46.2 70.2-46.2 114 0 71.4 44.6 134.2 111 156.5.4.1.9.3 1.3.3 7.8 1.4 12.9-1.2 15.7-3.6 3.8-3.1 5.9-7.9 5.9-13.1v-9.4c-.1-8.5-.1-20.1-.1-28.5 0-2.8-1.3-5.4-3.4-7.2-1.5-1.2-3.4-2-5.4-2.1-.8 0-1.6 0-2.4.2 0 0-.5.1-1.2.2l-.7.1h-.1c-.9.1-2.1.3-3.6.5-1.2.1-2.5.3-4 .3-1.1.1-2.4.1-3.6.1h-2.7c-.8 0-1.6-.1-2.5-.1-1.8-.1-3.6-.3-5.4-.6-.8-.1-1.5-.3-2.3-.5l-1.6-.4-.5-.2-2.1-.7c-.6-.2-1.2-.5-1.7-.7-1.8-.9-3.5-2-5-3.3l-.6-.6c.3.2.5.4.8.5 1.5 1 3 1.8 4.5 2.6.9.4 1.7.8 2.6 1.1l1.7.6.4.1 1.3.4c1 .3 2 .5 3 .7 1.5.3 3.1.5 4.7.6 1 .1 2 .1 3 .1h2.3c1.4-.1 2.9-.2 4.3-.4.9-.1 1.9-.3 2.8-.5 1.5-.3 2.9-.6 4.3-1l.4-.1c.1 0 .1 0 .2-.1 1.7-.5 3.4-1.1 5.1-1.8.9-.3 1.7-.7 2.5-1.1 1.6-.7 2.9-1.9 3.9-3.3.8-1.2 1.3-2.5 1.5-3.9.9-6.6 3.4-12.1 6.9-15.2 2.7-2.5 3.8-6.3 2.7-9.8-1.1-3.5-4.2-6-7.8-6.4-32.7-3.6-61-6.8-61-58.9 0-14.4 3.6-20.7 12.1-30.1 2.4-2.7 3.1-6.5 1.7-9.8-.6-1.4-5-13-.3-29.4 6.9 1.5 19.7 7.7 30.5 15.3 2.3 1.6 5.2 2.1 7.9 1.3 11.4-3.2 23.9-4.9 36.3-4.9s24.9 1.7 36.3 4.9c2.7.8 5.6.3 7.9-1.3 10.9-7.6 23.6-13.8 30.5-15.3 4.5 15.8.6 27.1-.3 29.5-1.3 3.3-.6 7.1 1.8 9.7 9.2 10.1 13.5 16.4 13.5 30.1 0 52-29 55.2-62.6 58.9-3.7.4-6.8 3-7.9 6.5-1.1 3.6 0 7.4 2.9 9.8 2.2 1.9 7.3 7.7 7.3 21.5 0 13.9-.1 30-.1 40.7 0 5.3-.1 9.2-.1 10.9 0 5.1 2.2 9.9 6 13.1 2.3 1.9 6 4 11.4 4 1.3 0 2.8-.1 4.3-.4l1.3-.3c65.7-21.9 109.7-84.8 109.6-156.5-.4-89.2-72.6-159.5-164.7-159.5zm46.8 227.4c30.6-4.6 64.1-16.8 64.1-75.6 0-18.2-6.4-28.8-14.8-38.6 2.2-8.6 4.1-24.2-3.4-43.2-1-2.6-3.2-4.6-5.9-5.5-14.1-4.4-36.6 8.6-47.1 15.5-11.8-2.9-24.5-4.5-37.1-4.5s-25.3 1.5-37.1 4.5c-10.5-6.9-33-19.9-47.1-15.5-2.7.8-4.9 2.8-5.9 5.5-7.6 19.1-5.5 34.9-3.4 43.2-8.5 10.4-13.4 20.9-13.4 38.5 0 58.8 32.7 71 62.7 75.6-.8 2.1-1.5 4.3-2.1 6.6-9.5 3.2-21 2.9-28.8-10.8-10.8-18.8-30.3-20.5-31.1-20.6h-.6c-8.7-.1-14.1 2.8-15.9 8.6-1.9 6 1.4 12.4 9.5 18 .4.3.9.6 1.4.8 4.5 2.1 9.9 11.5 12.3 17.3 5 14.7 18.2 23.8 37.4 25.7 5.2.5 10.2.4 14.3.1 0 6.2.1 12.7.1 18v7.4c-57.9-20.1-96.7-75.5-96.7-138.3 0-80.6 61-141.3 141.8-141.3 81.7 0 145.7 62.1 145.7 141.3.1 63.1-38.2 118.4-95.3 138.2v-8.8c.1-10.7.1-26.9.1-40.8 0-8.9-1.6-15.9-3.7-21.3zm-128.2 7.9c-.6.4-1.5.2-2.4-.4-.4-.3-.7-.6-1.1-1l-.2-.3c-.8-1.2-.7-2.6 0-3.2 0 0 .1-.1.2-.1h.1c.9-.6 2.1-.3 2.9.7l.5.6c.3.4.5.9.6 1.3.3.9.1 1.9-.6 2.4zm-9.3-9.6s-.1-.1-.1-.2c-.3-.4-.6-.9-.7-1.3 0-.2-.1-.3-.1-.4-.1-.6.1-1 .5-1.4l.5-.3c.4-.1.8-.1 1.2 0 .5.1.9.4 1.3.7l.2.2.1.1c.9 1.2 1.1 2.5.2 3.1-.8.8-2 .4-3-.3.1-.1 0-.2-.1-.2zm-5.5-5.9s-.1 0-.1-.1c-.1 0-.2-.1-.2-.1-1.1-.6-1.5-1.5-1.2-2.3.4-.6 1.4-.8 2.6-.4 1.1.6 1.7 1.5 1.5 2.2 0 .1 0 .2-.1.2 0 .1-.1.2-.2.3 0 .1-.1.1-.2.2l-.3.2c-.4.2-1.1.1-1.8-.2zm19.7 23.8c0-.2.1-.3.2-.4-.1.1-.3.2-.4.2-.1 0-.1-.1-.2-.2-1.4-1.2-1.8-3-.8-3.8.8-1 2.4-.9 3.8.3.1.1.2.1.2.2.1.1.2.2.3.4 1 1.2 1.2 2.8.5 3.4-.8 1-2.3.9-3.6-.1zm11.8 6.6c-.1 0-.3 0-.4-.1-.1 0-.1 0-.2-.1h-.1l-.5-.1c-1.5-.5-2.4-1.8-2-2.8.4-1.2 2.2-1.8 3.8-1.4h.2l.3.1c1.6.6 2.6 1.9 2.2 3-.4 1.1-1.8 1.6-3.3 1.4zm12.8 1.9h-.4l-.2-.7-.1.5c0 .1 0 .1-.1.2-1.6-.1-2.7-1-2.7-2.2 0-1.1 1.1-2 2.6-2.2h.7c1.7-.1 3.4.9 3.4 2.2 0 1.1-1.3 2.2-3.2 2.2zm12.6-1.5l-.3.1h-.5c-1.6.2-3.1-.5-3.3-1.6-.2-1.4 1-2.6 2.8-3h.7c1.5 0 2.8.7 3 1.8v.3c0 1-1 1.9-2.4 2.4zm-.2 1l-.2-1h-.5l.2 1.6.4-.1c.1 0 .1 0 .2-.1l-.1-.4zm-6.5-1.5c-.1-.1-.1-.3-.1-.4-.1-.5-.1-1.1-.1-1.7 0-1.4.5-2.7 1.2-3.9.1-.1.1-.2.2-.2l-.8.2c-.3.1-.6.1-.8.2l-.7.1c-.2 0-.5.1-.8.1h-.2c-.6.1-1.2.2-1.8.2h-.2c-.3 0-.5 0-.8.1h-1v2.7h.1c1.7-.1 3.4.9 3.4 2.2 0 1.2-1.4 2.2-3.3 2.2l.1 1.3c.1.3.2.5.4.8 1.4-.1 2.9-.2 4.3-.4.9-.1 1.9-.3 2.8-.5-1-.7-1.6-1.7-1.9-3zm6.5 1.5l-.2-1h-.5l.2 1.6.4-.1c.1 0 .1 0 .2-.1l-.1-.4zm-6.5-1.5c-.1-.1-.1-.3-.1-.4-.1-.5-.1-1.1-.1-1.7 0-1.4.5-2.7 1.2-3.9.1-.1.1-.2.2-.2l-.8.2c-.3.1-.6.1-.8.2l-.7.1c-.2 0-.5.1-.8.1h-.2c-.6.1-1.2.2-1.8.2h-.2c-.3 0-.5 0-.8.1h-1v2.7h.1c1.7-.1 3.4.9 3.4 2.2 0 1.2-1.4 2.2-3.3 2.2l.1 1.3c.1.3.2.5.4.8 1.4-.1 2.9-.2 4.3-.4.9-.1 1.9-.3 2.8-.5-1-.7-1.6-1.7-1.9-3zm6.5 1.5l-.2-1h-.5l.2 1.6.4-.1c.1 0 .1 0 .2-.1l-.1-.4zm-6.5-1.5c-.1-.1-.1-.3-.1-.4-.1-.5-.1-1.1-.1-1.7 0-1.4.5-2.7 1.2-3.9.1-.1.1-.2.2-.2l-.8.2c-.3.1-.6.1-.8.2l-.7.1c-.2 0-.5.1-.8.1h-.2c-.6.1-1.2.2-1.8.2h-.2c-.3 0-.5 0-.8.1h-1v2.7h.1c1.7-.1 3.4.9 3.4 2.2 0 1.2-1.4 2.2-3.3 2.2l.1 1.3c.1.3.2.5.4.8 1.4-.1 2.9-.2 4.3-.4.9-.1 1.9-.3 2.8-.5-1-.7-1.6-1.7-1.9-3zm6.5 1.5l-.2-1h-.5l.2 1.6.4-.1c.1 0 .1 0 .2-.1l-.1-.4zm-6.5-1.5c-.1-.1-.1-.3-.1-.4-.1-.5-.1-1.1-.1-1.7 0-1.4.5-2.7 1.2-3.9.1-.1.1-.2.2-.2l-.8.2c-.3.1-.6.1-.8.2l-.7.1c-.2 0-.5.1-.8.1h-.2c-.6.1-1.2.2-1.8.2h-.2c-.3 0-.5 0-.8.1h-1v2.7h.1c1.7-.1 3.4.9 3.4 2.2 0 1.2-1.4 2.2-3.3 2.2l.1 1.3c.1.3.2.5.4.8 1.4-.1 2.9-.2 4.3-.4.9-.1 1.9-.3 2.8-.5-1-.7-1.6-1.7-1.9-3zm6.5 1.5l-.2-1h-.5l.2 1.6.4-.1c.1 0 .1 0 .2-.1l-.1-.4zm-6.5-1.5c-.1-.1-.1-.3-.1-.4-.1-.5-.1-1.1-.1-1.7 0-1.4.5-2.7 1.2-3.9.1-.1.1-.2.2-.2l-.8.2c-.3.1-.6.1-.8.2l-.7.1c-.2 0-.5.1-.8.1h-.2c-.6.1-1.2.2-1.8.2h-.2c-.3 0-.5 0-.8.1h-1v2.7h.1c1.7-.1 3.4.9 3.4 2.2 0 1.2-1.4 2.2-3.3 2.2l.1 1.3c.1.3.2.5.4.8 1.4-.1 2.9-.2 4.3-.4.9-.1 1.9-.3 2.8-.5-1-.7-1.6-1.7-1.9-3zm6.5 1.5l-.2-1h-.5l.2 1.6.4-.1c.1 0 .1 0 .2-.1l-.1-.4zm-6.5-1.5c-.1-.1-.1-.3-.1-.4-.1-.5-.1-1.1-.1-1.7 0-1.4.5-2.7 1.2-3.9.1-.1.1-.2.2-.2l-.8.2c-.3.1-.6.1-.8.2l-.7.1c-.2 0-.5.1-.8.1h-.2c-.6.1-1.2.2-1.8.2h-.2c-.3 0-.5 0-.8.1h-1v2.7h.1c1.7-.1 3.4.9 3.4 2.2 0 1.2-1.4 2.2-3.3 2.2l.1 1.3c.1.3.2.5.4.8 1.4-.1 2.9-.2 4.3-.4.9-.1 1.9-.3 2.8-.5-1-.7-1.6-1.7-1.9-3zm6.5 1.5l-.2-1h-.5l.2 1.6.4-.1c.1 0 .1 0 .2-.1l-.1-.4zm-6.7-2c-.1-.5-.1-1.1-.1-1.7 0-1.4.5-2.7 1.2-3.9.1-.1.1-.2.2-.2l-.8.2c-.3.1-.6.1-.8.2l-.7.1c-.2 0-.5.1-.8.1h-.2c-.6.1-1.2.2-1.8.2h-.2c-.3 0-.5 0-.8.1h-1v2.7h.1c1.7-.1 3.4.9 3.4 2.2 0 1.2-1.4 2.2-3.3 2.2l.1 1.3c.1.3.2.5.4.8 1.4-.1 2.9-.2 4.3-.4.9-.1 1.9-.3 2.8-.5-.8-.9-1.4-1.9-1.7-3.2-.2.1-.2 0-.3-.2zm18.4-3.5v-.2c-.8-3.9-3.5-6.9-7.2-8.3-2-.8-4.2-1.1-6.6-.8l-.9.1c-1.8.4-3.4 1.1-4.8 2-1.6 1-2.9 2.4-3.8 4-.4.6-.7 1.2-.9 1.9v.1c-.1.2-.2.4-.2.6-.2.6-.3 1.3-.4 2h.7c1.7-.1 3.4.9 3.4 2.2 0 1.2-1.4 2.2-3.3 2.2h-.4c.1.3.2.7.4 1l.1.3c.1.3.2.5.4.8.1.1.2.3.2.4.4.6.8 1.2 1.4 1.8.5.6 1.1 1.1 1.8 1.6 1 .7 2 1.2 3.2 1.6 1.3.4 2.7.7 4.1.7.9 0 1.9-.1 2.8-.3 3.2-.7 6-2.3 7.9-4.7.2-.3.5-.6.6-.9 1.5-2.4 2-5.3 1.5-8.1zm-10.9 9.1l-.4-1.8-.3-1.3-.1-.5-.2-1h-.5l.2 1.6.1 1v.3l.2 1.8h-1.1c-.9-.2-1.9-.6-2.7-1.3l-.8-.7c-.8-.9-1.4-1.9-1.7-3.2-.1-.1-.1-.3-.1-.4-.1-.5-.1-1.1-.1-1.7 0-1.4.5-2.7 1.2-3.9.1-.1.1-.2.2-.2.6-.9 1.4-1.6 2.3-2 .3-.2.7-.3 1-.4 1.1-.2 2.2-.1 3.3.4l1.1.6c1.6 1.1 2.7 2.8 3 4.7l-2.7.6 2.8-.4v.2l-2.8.4v.1l2.8-.4c.1.9.1 1.7-.1 2.5-.2 1-.6 1.9-1.2 2.7-1 1.3-2.2 2.1-3.4 2.3zm-7.3-5.1c-.1-.1-.1-.3-.1-.4-.1-.5-.1-1.1-.1-1.7 0-1.4.5-2.7 1.2-3.9.1-.1.1-.2.2-.2l-.8.2c-.3.1-.6.1-.8.2l-.7.1c-.2 0-.5.1-.8.1h-.2c-.6.1-1.2.2-1.8.2h-.2c-.3 0-.5 0-.8.1h-1v2.7h.1c1.7-.1 3.4.9 3.4 2.2 0 1.2-1.4 2.2-3.3 2.2l.1 1.3c.1.3.2.5.4.8 1.4-.1 2.9-.2 4.3-.4.9-.1 1.9-.3 2.8-.5-1-.7-1.6-1.7-1.9-3zm6.5 1.5l-.2-1h-.5l.2 1.6.4-.1c.1 0 .1 0 .2-.1l-.1-.4zm-6.5-1.5c-.1-.1-.1-.3-.1-.4-.1-.5-.1-1.1-.1-1.7 0-1.4.5-2.7 1.2-3.9.1-.1.1-.2.2-.2l-.8.2c-.3.1-.6.1-.8.2l-.7.1c-.2 0-.5.1-.8.1h-.2c-.6.1-1.2.2-1.8.2h-.2c-.3 0-.5 0-.8.1h-1v2.7h.1c1.7-.1 3.4.9 3.4 2.2 0 1.2-1.4 2.2-3.3 2.2l.1 1.3c.1.3.2.5.4.8 1.4-.1 2.9-.2 4.3-.4.9-.1 1.9-.3 2.8-.5-1-.7-1.6-1.7-1.9-3zm6.5 1.5l-.2-1h-.5l.2 1.6.4-.1c.1 0 .1 0 .2-.1l-.1-.4zm-6.5-1.5c-.1-.1-.1-.3-.1-.4-.1-.5-.1-1.1-.1-1.7 0-1.4.5-2.7 1.2-3.9.1-.1.1-.2.2-.2l-.8.2c-.3.1-.6.1-.8.2l-.7.1c-.2 0-.5.1-.8.1h-.2c-.6.1-1.2.2-1.8.2h-.2c-.3 0-.5 0-.8.1h-1v2.7h.1c1.7-.1 3.4.9 3.4 2.2 0 1.2-1.4 2.2-3.3 2.2l.1 1.3c.1.3.2.5.4.8 1.4-.1 2.9-.2 4.3-.4.9-.1 1.9-.3 2.8-.5-1-.7-1.6-1.7-1.9-3zm6.5 1.5l-.2-1h-.5l.2 1.6.4-.1c.1 0 .1 0 .2-.1l-.1-.4zm-6.5-1.5c-.1-.1-.1-.3-.1-.4-.1-.5-.1-1.1-.1-1.7 0-1.4.5-2.7 1.2-3.9.1-.1.1-.2.2-.2l-.8.2c-.3.1-.6.1-.8.2l-.7.1c-.2 0-.5.1-.8.1h-.2c-.6.1-1.2.2-1.8.2h-.2c-.3 0-.5 0-.8.1h-1v2.7h.1c1.7-.1 3.4.9 3.4 2.2 0 1.2-1.4 2.2-3.3 2.2l.1 1.3c.1.3.2.5.4.8 1.4-.1 2.9-.2 4.3-.4.9-.1 1.9-.3 2.8-.5-1-.7-1.6-1.7-1.9-3zm6.5 1.5l-.2-1h-.5l.2 1.6.4-.1c.1 0 .1 0 .2-.1l-.1-.4zm-6.5-1.5c-.1-.1-.1-.3-.1-.4-.1-.5-.1-1.1-.1-1.7 0-1.4.5-2.7 1.2-3.9.1-.1.1-.2.2-.2l-.8.2c-.3.1-.6.1-.8.2l-.7.1c-.2 0-.5.1-.8.1h-.2c-.6.1-1.2.2-1.8.2h-.2c-.3 0-.5 0-.8.1h-1v2.7h.1c1.7-.1 3.4.9 3.4 2.2 0 1.2-1.4 2.2-3.3 2.2l.1 1.3c.1.3.2.5.4.8 1.4-.1 2.9-.2 4.3-.4.9-.1 1.9-.3 2.8-.5-1-.7-1.6-1.7-1.9-3zm6.5 1.5l-.2-1h-.5l.2 1.6.4-.1c.1 0 .1 0 .2-.1l-.1-.4zm-6.5-1.5c-.1-.1-.1-.3-.1-.4-.1-.5-.1-1.1-.1-1.7 0-1.4.5-2.7 1.2-3.9.1-.1.1-.2.2-.2l-.8.2c-.3.1-.6.1-.8.2l-.7.1c-.2 0-.5.1-.8.1h-.2c-.6.1-1.2.2-1.8.2h-.2c-.3 0-.5 0-.8.1h-1v2.7h.1c1.7-.1 3.4.9 3.4 2.2 0 1.2-1.4 2.2-3.3 2.2l.1 1.3c.1.3.2.5.4.8 1.4-.1 2.9-.2 4.3-.4.9-.1 1.9-.3 2.8-.5-1-.7-1.6-1.7-1.9-3zm6.5 1.5l-.2-1h-.5l.2 1.6.4-.1c.1 0 .1 0 .2-.1l-.1-.4zm-6.5-1.5c-.1-.1-.1-.3-.1-.4-.1-.5-.1-1.1-.1-1.7 0-1.4.5-2.7 1.2-3.9.1-.1.1-.2.2-.2l-.8.2c-.3.1-.6.1-.8.2l-.7.1c-.2 0-.5.1-.8.1h-.2c-.6.1-1.2.2-1.8.2h-.2c-.3 0-.5 0-.8.1h-1v2.7h.1c1.7-.1 3.4.9 3.4 2.2 0 1.2-1.4 2.2-3.3 2.2l.1 1.3c.1.3.2.5.4.8 1.4-.1 2.9-.2 4.3-.4.9-.1 1.9-.3 2.8-.5-1-.7-1.6-1.7-1.9-3zm6.5 1.5l-.2-1h-.5l.2 1.6.4-.1c.1 0 .1 0 .2-.1l-.1-.4zm5.2-1.2c-.2 1-.6 1.9-1.2 2.7-.8 0-1.6 0-2.4.2 0 0-.5.1-1.2.2l-.3-1.3c1.8-.6 3.5-1.2 5.1-1.8zm-18 1.7h-.4l.1-.2c.1-.2.1-.3.1-.5.1.2.2.5.2.7zm12.6-1.5h-.5c-1.6.2-3.1-.5-3.3-1.6-.2-1.4 1-2.6 2.8-3h.7c-.4-1.1-1-2.1-1.7-3-.3-.4-.6-.8-1-1.2-.2-.2-.3-.3-.5-.4-1.2-1.1-2.7-1.9-4.2-2.5-1.6-.6-3.4-.8-5.2-.7-1.5.1-2.9.3-4.2.8-1.7.6-3.3 1.6-4.5 2.8-.5.5-1 1.1-1.4 1.7l-.6.9-.6 1.2.3.1c1.6.6 2.6 1.9 2.2 3-.3 1.1-1.8 1.6-3.3 1.4 0 .9.1 1.7.4 2.5 0 .2.1.4.2.6.2.5.3.9.5 1.3.6 1.3 1.5 2.6 2.6 3.6l.9.8c2.2 1.6 4.8 2.5 7.7 2.5h.9c2.5-.1 4.8-.8 6.6-2 1.7-1 3.1-2.4 4-4.1.3-.6.6-1.2.8-1.8l.1-.3.3-1.1.1-.5c.1-.4.1-.7.1-1.1 0 .1-.1.1-.2.1zm-11.8 6.3l-.2-2.3v-.4l-.1-.8-.1-1.3v4.8c-1.1 0-2.1-.4-3.1-1.1-.2-.1-.4-.3-.6-.5-.3-.3-.6-.6-.8-.9-.1-.1-.2-.2-.3-.4-.8-1.2-1.3-2.7-1.3-4.2 0-2 .8-3.8 1.9-5 .8-.9 1.7-1.5 2.7-1.8.2-.1.5-.2.7-.2l.2 2.1.1.7v.1l.2 1.9v-4.8c.3 0 .6.1 1 .2.9.2 1.8.7 2.7 1.5l.1.1c1 .9 1.7 2.1 2 3.5.2.6.2 1.2.2 1.8v.2c0 1.4-.4 2.6-1.1 3.7l-.4.6c-.6.8-1.4 1.5-2.3 1.9-.3.3-.9.5-1.5.6zm-1.2-9.3h.7c0-.3 0-.6-.1-.9l-.2-1v-.1c-.1-.2-.1-.5-.2-.8l-.6-1.5-.2-.4c-.8-1.5-2-2.9-3.4-3.9-1.3-1-2.9-1.8-4.6-2.3-.2-.1-.4-.1-.5-.1-1-.2-2.1-.4-3.1-.4-1.8 0-3.5.3-5 .9-.8.3-1.5.7-2.2 1.1 0 0-.1 0-.1.1-.6.4-1.2.9-1.7 1.4.1.1.2.1.2.2.1.1.2.2.3.4 1 1.2 1.2 2.8.5 3.4-.8.9-2.3.9-3.6-.2-.1.2-.2.5-.3.8-.4 1.2-.5 2.5-.4 3.7.1 1.8.6 3.6 1.6 5.2l.3.5c1.7 2.6 4.5 4.5 7.6 5.3 1.2.4 2.5.6 3.8.6 1.3 0 2.6-.2 3.9-.6.6-.2 1.2-.4 1.8-.7 1.3-.6 2.4-1.5 3.3-2.4.4-.4.7-.8 1-1.3.1-.1.2-.2.2-.3.4-.7.8-1.4 1-2.1-1.6-.1-2.7-1-2.7-2.2 0-1.2 1.1-2.2 2.7-2.4zm-13.5 7.1l.4-1.8.1-.6.5-2.3c-.1 0-.1 0-.2-.1h-.1l-.6 2-.1.2-.2.5-.6 1.8c-.9-.3-1.8-1-2.5-2l-.6-.9c-.1-.1-.1-.2-.2-.4l-.3-.8c-.5-1.5-.4-3.2.1-4.7.6-1.7 1.8-3.2 3.3-4l.3-.2c1.1-.5 2.2-.8 3.3-.6.2 0 .3 0 .5.1.5.2 1 .5 1.5.8.7.5 1.2 1.1 1.7 1.9l.3.6c.8 1.6.9 3.5.4 5.2l-2.5-.8 2.5.9c-.5 1.5-1.3 2.8-2.4 3.7-.2.1-.3.2-.5.4-.5.4-1.1.7-1.8.9-.6.4-1.4.4-2.3.2zm-10.1-11.6l-.2.4c-.1 0-.1-.1-.2-.2.1 0 .2-.1.4-.2zm13-2.2c-.2-1.6-.8-3.3-1.7-4.8-.6-1-1.3-2-2.2-2.8-1.3-1.3-2.9-2.4-4.6-3-1.6-.7-3.3-1-5-.9h-.1c-.5 0-.9.1-1.4.2-.1 0-.2 0-.3.1l-.4.1-.4.1c-.9.2-1.7.6-2.4 1l.5.6c.3.4.5.9.6 1.3.3 1 .1 2-.6 2.5-.6.4-1.5.2-2.4-.4-.4-.3-.7-.6-1.1-1l-.2-.3c-.6.7-1.1 1.4-1.4 2.2-.4.8-.7 1.6-.8 2.4-.2.8-.3 1.7-.3 2.5 0 1 .2 2 .4 2.9.6 2.4 2 4.6 3.9 6.4 2.2 2.1 5 3.4 7.9 3.7h1.6c1.6-.1 3.1-.5 4.5-1.2.3-.2.7-.4 1-.5l.6-.4c.6-.4 1.1-.9 1.6-1.4.1-.1.2-.2.3-.4-1.5-.5-2.4-1.8-2-2.8.4-1.2 2.2-1.8 3.8-1.4h.2l.3.1c.1-.4.2-.9.3-1.4.1-.4.1-.7.1-1.1v-.3c-.1-.6-.2-1.3-.3-2zm-12.6 7.2c-.4 0-.9 0-1.3-.1-1.1-.2-2.1-.6-2.8-1.2l2.7-3.1.4-.5-3.4 3.4c-.5-.5-.9-1.2-1.1-1.8-.3-.8-.4-1.7-.4-2.3 0-1.4.5-2.8 1.3-4 .2-.3.4-.6.6-.8l.4.3 1.8 1.5-1.5-1.7-.4-.4c.6-.6 1.3-1.1 2.1-1.5.7-.3 1.4-.6 2.1-.7l.7-.1c1.2-.1 2.3.2 3.2.7l.9.6.6.7c.7.9 1 2.1 1 3.4 0 1.8-.6 3.5-1.8 4.9l-2.2-1.8 1.9 2.1c-1 1-2.4 1.7-3.8 2-.1 0-.1 0-.2.1-.2.2-.5.2-.8.3zm-3.4-10.4l-.3.2 1.8 1.5-1.5-1.7zm0 0l-.3.2 1.8 1.5-1.5-1.7zm0 0l-.3.2 1.8 1.5-1.5-1.7zm0 0l-.3.2 1.8 1.5-1.5-1.7zm0 0l-.3.2 1.8 1.5-1.5-1.7zm0 0l-.3.2 1.8 1.5-1.5-1.7zm0 0l-.3.2 1.8 1.5-1.5-1.7zm7.6-7.4c-.4-1.4-1-2.7-1.9-4-1.1-1.8-2.6-3.2-4.4-4.2-1.2-.7-2.5-1.2-3.9-1.4-.4-.1-.8-.1-1.2-.1h-1.7c-.4 0-.9.1-1.3.2h-.2c-1.1.2-2.1.7-3.1 1.2.5.1.9.4 1.3.7l.2.2.1.1c.9 1.2 1.1 2.5.2 3.1-.8.8-2 .4-3-.3-.1-.1-.2-.1-.2-.2 0 0-.1-.1-.1-.2-.3-.4-.6-.9-.7-1.3 0-.2-.1-.3-.1-.4-.4.4-.8.8-1.1 1.3-.8 1.1-1.4 2.2-1.8 3.6-.1.3-.2.6-.2.8v.2c-.1.6-.2 1.3-.2 1.9 0 .9.1 1.8.3 2.8.4 1.8 1.2 3.5 2.3 5.1 1 1.4 2.2 2.5 3.6 3.4.5.3 1 .6 1.6.9 1.6.8 3.3 1.2 5.1 1.2h.7c1.4-.1 2.7-.4 4-1 .1 0 .1 0 .1-.1l.6-.3c-.1 0-.1-.1-.2-.2-1.4-1.2-1.8-3-.8-3.8.8-1 2.4-.9 3.8.3.1.1.2.1.2.2.1.1.2.2.3.4.5-.6.8-1.3 1.2-2v-.1c.3-.8.6-1.6.7-2.5.4-1.8.3-3.7-.2-5.5zm-7.6 7.4l-.3.2c-.3.2-.6.4-1 .5-1.4.7-3 .9-4.5.6-.8-.1-1.6-.4-2.3-.8-.7-.4-1.3-1-1.8-1.6-.1-.2-.2-.4-.3-.7-.6-1.4-.6-3.1 0-4.7.5-1.3 1.4-2.6 2.6-3.5l1.5 2 .4.6s.1-.1.2-.1h.1l-.4-.6-1.4-2.1h.1s.1-.1.2-.1c1.1-.7 2.3-1.1 3.5-1.2h1.1c1.4.1 2.8.6 3.7 1.5.2.2.4.4.6.7v.1l-1.2.9-.5.3-.3.2-2 1.5 2.2-1.3.6-.3.4-.2 1.2-.7.3.6c.4 1.1.6 2.4.3 3.7 0 .2-.1.5-.2.7-.2.7-.5 1.4-1 2-.5.6-1.1 1.3-1.8 1.8zm0 0l-.3.2 1.8 1.5-1.5-1.7zm0 0l-.3.2 1.8 1.5-1.5-1.7zm0 0l-.3.2 1.8 1.5-1.5-1.7zm0 0l-.3.2 1.8 1.5-1.5-1.7zm0 0l-.3.2 1.8 1.5-1.5-1.7zm0 0l-.3.2 1.8 1.5-1.5-1.7zm-12.9-16.7l-1.4-1.8.1-.1-.1-.1c0 .1 0 .2-.1.2 0 .1-.1.2-.2.3l.8.9 1.9 2-1-1.4zm7 8.6l-.3.2.4.6s.1-.1.2-.1h.1l-.4-.7zm-2.3-3.4l1 1.2s.1-.1.2-.1l-1.2-1.1zm2.3 3.4l-.3.2.4.6s.1-.1.2-.1h.1l-.4-.7zm-2.3-3.4l1 1.2s.1-.1.2-.1l-1.2-1.1zm-4.7-5.2l-1.4-1.8.1-.1-.1-.1c0 .1 0 .2-.1.2 0 .1-.1.2-.2.3l.8.9 1.9 2-1-1.4zm7 8.6l-.3.2.4.6s.1-.1.2-.1h.1l-.4-.7zm-2.3-3.4l1 1.2s.1-.1.2-.1l-1.2-1.1zm-4.7-5.2l-1.4-1.8.1-.1-.1-.1c0 .1 0 .2-.1.2 0 .1-.1.2-.2.3l.8.9 1.9 2-1-1.4zm7 8.6l-.3.2.4.6s.1-.1.2-.1h.1l-.4-.7zm-2.3-3.4l1 1.2s.1-.1.2-.1l-1.2-1.1zm-4.7-5.2l-1.4-1.8.1-.1-.1-.1c0 .1 0 .2-.1.2 0 .1-.1.2-.2.3l.8.9 1.9 2-1-1.4zm7 8.6l-.3.2.4.6s.1-.1.2-.1h.1l-.4-.7zm-2.3-3.4l1 1.2s.1-.1.2-.1l-1.2-1.1zm-4.7-5.2l-1.4-1.8.1-.1-.1-.1c0 .1 0 .2-.1.2 0 .1-.1.2-.2.3l.8.9 1.9 2-1-1.4zm7 8.6l-.3.2.4.6s.1-.1.2-.1h.1l-.4-.7zm-2.3-3.4l1 1.2s.1-.1.2-.1l-1.2-1.1zm-4.7-5.2l-1.4-1.8.1-.1-.1-.1c0 .1 0 .2-.1.2 0 .1-.1.2-.2.3l.8.9 1.9 2-1-1.4zm7 8.6l-.3.2.4.6s.1-.1.2-.1h.1l-.4-.7zm-2.3-3.4l1 1.2s.1-.1.2-.1l-1.2-1.1zm-6.1-7l.1-.1-.1-.1v.2c-.1.2-.2.3-.3.4l.8.9 1.9 2-1.1-1.4-1.3-1.9zm15.6 2.9c-.5-1.8-1.4-3.6-2.7-5.2l-.9-.9c-1.3-1.1-2.6-2-4.1-2.5-1.6-.6-3.2-.9-4.8-.8-1.9.1-3.7.6-5.3 1.6-.5.3-1 .7-1.5 1.1-2.1 1.8-3.3 4.3-3.6 7.1 0 .5-.1 1 0 1.5v.5c.1 1.3.4 2.6 1 3.8.5 1.2 1.2 2.3 2.1 3.4.2.3.5.6.8.8.7.7 1.5 1.2 2.3 1.7.7.4 1.4.7 2.1 1 1 .4 2.1.6 3.1.7h1c.7 0 1.4-.1 2-.2.9-.2 1.8-.5 2.7-.9-.4-.3-.7-.6-1.1-1l-.2-.3c-.8-1.2-.7-2.6 0-3.2 0 0 .1-.1.2-.1h.1c.9-.6 2.1-.3 2.9.7l.5.6c.3.4.5.9.6 1.3.7-.7 1.3-1.4 1.7-2.3.1-.2.2-.4.4-.6l.1-.2.1-.3c.2-.5.4-1 .5-1.6l.3-1.5c.2-1.5.1-2.8-.3-4.2zm-6.6 7l-1.7-1.7-1.1-1.1.1.1.9 1.2 1.5 2-.2.2-.3.2c-1.3.9-2.7 1.4-4.1 1.5-1.8.1-3.5-.4-4.6-1.4l.5-.6 3.1-3.4c-.1-.1-.2-.1-.2-.2 0 0-.1-.1-.1-.2l-3.6 3.1-.5.4c-.6-.8-1.1-1.8-1.2-3-.1-.5-.1-1.1 0-1.7.2-1.6.8-3.1 1.9-4.3-.5.2-1.2.2-1.9-.2 0 0-.1 0-.1-.1-.1 0-.2-.1-.2-.1-1.1-.6-1.5-1.5-1.2-2.3.4-.6 1.4-.8 2.6-.4 1.1.6 1.7 1.5 1.5 2.2 0 .1 0 .2-.1.2 0 .1-.1.2-.2.3l.8.9 1.9 2-1.1-1.4-1.4-1.8.1-.1c1-.9 2.2-1.4 3.4-1.6.5-.1 1-.2 1.5-.2 1.6 0 3.1.5 4.1 1.4l-1.8 1.9-.1.1-1.8 1.9.2.2.1.1 2.1-1.8.8-.7.4-.3.7-.6c.2.3.5.6.6 1 .6 1.1.8 2.4.7 3.7l-.1.7-.3 1.2c-.2.9-.8 1.9-1.6 2.7zm-7.6-8.1l-1.4-1.8.1-.1-.1-.1c0 .1 0 .2-.1.2 0 .1-.1.2-.2.3l.8.9 1.9 2-1-1.4zm4.7 5.2l1 1.2s.1-.1.2-.1l-1.2-1.1zm2.3 3.4l-.3.2.4.6s.1-.1.2-.1h.1l-.4-.7zm-7-8.6l-1.4-1.8.1-.1-.1-.1c0 .1 0 .2-.1.2 0 .1-.1.2-.2.3l.8.9 1.9 2-1-1.4zm4.7 5.2l1 1.2s.1-.1.2-.1l-1.2-1.1zm2.3 3.4l-.3.2.4.6s.1-.1.2-.1h.1l-.4-.7zm-7-8.6l-1.4-1.8.1-.1-.1-.1c0 .1 0 .2-.1.2 0 .1-.1.2-.2.3l.8.9 1.9 2-1-1.4zm4.7 5.2l1 1.2s.1-.1.2-.1l-1.2-1.1zm2.3 3.4l-.3.2.4.6s.1-.1.2-.1h.1l-.4-.7zm-7-8.6l-1.4-1.8.1-.1-.1-.1c0 .1 0 .2-.1.2 0 .1-.1.2-.2.3l.8.9 1.9 2-1-1.4zm4.7 5.2l1 1.2s.1-.1.2-.1l-1.2-1.1zm2.3 3.4l-.3.2.4.6s.1-.1.2-.1h.1l-.4-.7zm-7-8.6l-1.4-1.8.1-.1-.1-.1c0 .1 0 .2-.1.2 0 .1-.1.2-.2.3l.8.9 1.9 2-1-1.4zm4.7 5.2l1 1.2s.1-.1.2-.1l-1.2-1.1zm2.3 3.4l-.3.2.4.6s.1-.1.2-.1h.1l-.4-.7zm-7-8.6l-1.4-1.8.1-.1-.1-.1c0 .1 0 .2-.1.2 0 .1-.1.2-.2.3l.8.9 1.9 2-1-1.4zm4.7 5.2l1 1.2s.1-.1.2-.1l-1.2-1.1zm2.3 3.4l-.3.2.4.6s.1-.1.2-.1h.1l-.4-.7zm-8.7-10c0 .1-.1.1-.2.2l1 .7-.8-.9zm0 0c0 .1-.1.1-.2.2l1 .7-.8-.9zm0 0c0 .1-.1.1-.2.2l1 .7-.8-.9zm0 0c0 .1-.1.1-.2.2l1 .7-.8-.9zm8.2-6.1c-1.1-1.9-2.8-3.6-5.1-4.8-.3-.2-.7-.3-1.1-.5-5.1-1.9-10.6-.4-13.5 3.7 0 0-.1.1-.1.2-.3.5-.6 1-.8 1.5-1 2.2-1.1 4.6-.6 6.8.8 3.1 2.9 5.9 6.1 7.6.3.2.5.3.8.4 1.1.5 2.2.8 3.4 1 .5.1 1 .1 1.5.1h.3c.4 0 .8 0 1.1-.1.6-.1 1.2-.2 1.8-.4 1.7-.5 3.2-1.4 4.4-2.6.9-.9 1.6-1.9 2.1-3 .2-.4.4-.8.5-1.2.2-.5.3-1 .4-1.6v-.3c.5-2.4 0-4.7-1.2-6.8zm-1.8 12.7c-.8.8-2 .4-3-.3-.1-.1-.2-.1-.2-.2 0 0-.1-.1-.1-.2-.3-.4-.6-.9-.7-1.3-.4.3-.8.6-1.2.8-1.1.6-2.3 1-3.5 1-.8 0-1.5-.1-2.2-.4l2.2-5.9s-.1 0-.1-.1c-.1 0-.2-.1-.2-.1l-1.6 2.9-1.6 2.5c-.5-.3-.9-.6-1.3-1-1.9-2-2.7-5.4-1.2-8.6.5-1 1.2-1.9 2-2.6.8-.7 1.8-1.3 2.9-1.6 1.8-.6 3.7-.4 5.3.4.5.3 1 .7 1.5 1.2 1.2 1.2 1.8 2.9 1.9 4.7v1.3c-.1.8-.3 1.6-.6 2.4l-4.3-1.9-.1-.1c0 .1 0 .2-.1.2 0 .1-.1.2-.2.3 0 .1-.1.1-.2.2l1 .7.8.6 1.6 1.1c.4-.1.8-.1 1.2 0 .5.1.9.4 1.3.7l.2.2.1.1c1.1 1.1 1.3 2.4.4 3zm-6.4-6.6c0 .1-.1.1-.2.2l1 .7-.8-.9zm0 0c0 .1-.1.1-.2.2l1 .7-.8-.9zm0 0c0 .1-.1.1-.2.2l1 .7-.8-.9zm-7-6.1s13.2.6 20.3 8.4c7.1 7.9 19 16.3 31.2 16.3s22.3 5.9 19.3 11.6 1.9 11.5-7.6 13.3c-9.5 1.8-23.5 1.6-31.3-1.5-7.8-3.1-29.1-20.3-32-32.9-2.9-12.5-2.3-15.3-.7-15.2"/><ellipse transform="matrix(.981 -.194 .194 .981 -64.557 41.246)" class="st1" cx="178.6" cy="350.6" rx="11.2" ry="8.3"/><ellipse transform="matrix(.375 -.927 .927 .375 -224.188 359.064)" class="st1" cx="154.1" cy="345.7" rx="7.9" ry="10.6"/><ellipse transform="matrix(.741 -.671 .671 .741 -187.663 177.856)" class="st1" cx="136.9" cy="332.4" rx="5.7" ry="7.7"/><ellipse transform="matrix(.741 -.671 .671 .741 -181.219 167.338)" class="st1" cx="126.5" cy="318.8" rx="3.8" ry="5.1"/></svg>