<svg width="800" height="800" viewBox="0 0 24 24" xmlns="http://www.w3.org/2000/svg" fill="none"><path d="M20 11.75c-.162.001-.32-.052-.45-.15l-7.55-5.66-7.55 5.66c-.159.119-.359.171-.556.143-.197-.028-.375-.133-.494-.293-.119-.159-.171-.359-.142-.556.028-.197.133-.375.292-.494l8-6c.13-.097.288-.15.45-.15.162 0 .32.053.45.15l8 6c.145.118.241.286.269.471.028.185-.015.374-.119.529-.064.103-.152.189-.256.25-.105.061-.223.095-.344.1zm-2 8h-12c-.198-.003-.387-.082-.527-.223-.14-.14-.22-.329-.223-.527v-9.5c0-.199.079-.39.22-.53.141-.141.331-.22.53-.22s.39.079.53.22c.141.141.22.331.22.53v8.75h10.5v-8.75c0-.199.079-.39.22-.53.141-.141.331-.22.53-.22s.39.079.53.22c.141.141.22.331.22.53v9.5c-.003.198-.082.387-.223.527-.14.14-.329.22-.527.223zm-4 0c-.198-.003-.387-.082-.527-.223-.14-.14-.22-.329-.223-.527v-6.25h-2.5v6.25c0 .199-.079.39-.22.53-.141.141-.331.22-.53.22s-.39-.079-.53-.22c-.141-.141-.22-.331-.22-.53v-7c.003-.198.082-.387.223-.527.14-.14.329-.22.527-.223h4c.198.003.387.082.527.223.14.14.22.329.223.527v7c-.003.198-.082.387-.223.527-.14.14-.329.22-.527.223z" fill="#fff"/></svg>