<svg xmlns="http://www.w3.org/2000/svg" viewBox="0 0 800 800" enable-background="new 0 0 800 800"><style type="text/css">.st0{fill:#FFFFFF;}</style><path class="st0" d="M543.7 443.6c-5.6-3.9-13.8-9-24.1-15.5l-7.4-4.6c-18.8-11.7-42.1-12.8-61.2-2.9l-12.7 5.4c-1.4.6-2.6 1.6-3.5 2.7-.2 0-.4-.1-.6-.2l-.2-.1c-7.7-3.1-22.8-10.5-37-25.1l-.1-.1c-13-13-20.7-27.5-25.4-37.4-.4-.9-.1-2 .3-2.6.2-.3.4-.6.5-.9l.5-1c.1-.2.2-.3.2-.5l5.4-12.7c10.2-19.6 9.1-42.9-3-61.3-4.5-7.1-8.5-13.3-12-18.8-3.2-4.9-5.9-9.2-7.9-12.3l-.1-.2c-7.5-11.6-19.5-18.6-32.9-19.2-21.6-1-42.3 6.4-56.9 20.2-5.5 5-9.9 11-13.6 18.3-2.8 5.6-5.5 10.9-5.5 18.5v17.5c.7 13.6 3.1 27.3 7 40.8 11.4 41.5 36.2 81.9 73.9 119.9 46.6 46.6 90.9 65.9 119.9 73.8 13.4 3.9 27.1 6.2 40.6 7 2.8.3 5.2.4 7.5.4 2.2 0 4.1-.1 5.7-.4h4.5c8.1 0 13.9-2.7 18.8-5.7 6-3 12.3-7.7 17.8-13.2l.1-.1c13.9-14.5 21.2-35.3 20.3-57-.4-13-7.5-25.3-18.9-32.7zm-40.6 69.2h-13.5c-9.6-.6-20.5-2.4-32.4-5.4-34.8-9.5-69.4-31-102.6-63.8-40.1-40.6-56.3-77.7-62.8-101.7 0-.1 0-.1-.1-.2-3.4-11.5-5.3-22.8-5.3-31.9v-14.1c.2-.6.5-1.4.8-2l.3-.6c.7-1.5 2.5-4.4 6.1-8 6.9-6.9 16.2-10 27.8-9.3h.3c.3.1.8.6 1.3 1.3l.1.1c3.6 5.3 8.7 13.4 15.1 23.6l4.6 7.3.1.2c4 6 4.4 14.3 1.1 21-.6.7-1.1 1.4-1.4 2.3l-4.2 10.1c-7.3 11.1-8.6 25.5-3.6 38.7 0 .1.1.2.1.4 8.7 20 19.7 36.3 33.6 49.8 18.3 17.8 37.1 28 49.7 33.5 12.7 5.5 26.8 4.2 38.9-3.4l10.2-4.3c.8-.3 1.5-.8 2.2-1.3 6.8-3.2 14.8-2.7 21.3 1.2 7 4.4 13.2 8.4 18.6 11.9 4.9 3.2 9.2 5.9 12.5 8 .7.5 1.1 1 1.2 1.3.4 12.1-2.8 21.5-9.3 28-3.6 3.6-6.6 5.4-8 6.1-.8.6-1.9 1-2.7 1.2zm19-354.3l-244.2-.5c-65.9 0-119.6 53.7-119.6 119.6v244.7c0 65.9 53.7 119.6 119.6 119.6h244.2c65.9 0 119.6-53.7 119.6-119.6v-244.2c0-65.9-53.6-119.6-119.6-119.6zm80.6 119.6v244.2c0 44.4-36.2 80.6-80.6 80.6h-244.2c-44.4 0-80.6-36.2-80.6-80.6v-244.2c0-45.2 35.4-80.6 80.6-80.6h244.2c44.4.1 80.6 36.2 80.6 80.6z"/></svg>