<?xml version="1.0" encoding="utf-8"?>
<!-- Generator: Adobe Illustrator 27.1.1, SVG Export Plug-In . SVG Version: 6.00 Build 0)  -->
<svg version="1.1" id="Layer_1" xmlns="http://www.w3.org/2000/svg" xmlns:xlink="http://www.w3.org/1999/xlink" x="0px" y="0px"
	 viewBox="0 0 800 800" style="enable-background:new 0 0 800 800;" xml:space="preserve">
<style type="text/css">
	.st0{fill:#FFFFFF;}
</style>
<g id="SVGRepo_bgCarrier">
</g>
<g id="SVGRepo_tracerCarrier">
</g>
<g>
	<path class="st0" d="M543.7,443.6c-5.6-3.9-13.8-9-24.1-15.5l-7.4-4.6c-18.8-11.7-42.1-12.8-61.2-2.9l-12.7,5.4
		c-1.4,0.6-2.6,1.6-3.5,2.7c-0.2,0-0.4-0.1-0.6-0.2c-0.1,0-0.1-0.1-0.2-0.1c-7.7-3.1-22.8-10.5-37-25.1c0,0-0.1-0.1-0.1-0.1
		c-13-13-20.7-27.5-25.4-37.4c-0.4-0.9-0.1-2,0.3-2.6c0.2-0.3,0.4-0.6,0.5-0.9l0.5-1c0.1-0.2,0.2-0.3,0.2-0.5l5.4-12.7
		c10.2-19.6,9.1-42.9-3-61.3c-4.5-7.1-8.5-13.3-12-18.8c-3.2-4.9-5.9-9.2-7.9-12.3c0-0.1-0.1-0.1-0.1-0.2
		c-7.5-11.6-19.5-18.6-32.9-19.2c0,0,0,0,0,0c-21.6-1-42.3,6.4-56.9,20.2c-5.5,5-9.9,11-13.6,18.3c-2.8,5.6-5.5,10.9-5.5,18.5
		c0,0,0,0,0,0.1v17c0,0.1,0,0.3,0,0.4c0.7,13.6,3.1,27.3,7,40.8c11.4,41.5,36.2,81.9,73.9,119.9c46.6,46.6,90.9,65.9,119.9,73.8
		c13.4,3.9,27.1,6.2,40.6,7c2.8,0.3,5.2,0.4,7.5,0.4c2.2,0,4.1-0.1,5.7-0.4h4.4c0,0,0,0,0.1,0c8.1,0,13.9-2.7,18.8-5.7
		c6-3,12.3-7.7,17.8-13.2c0,0,0.1-0.1,0.1-0.1c13.9-14.5,21.2-35.3,20.3-57C562.2,463.3,555.1,451,543.7,443.6z M503.1,512.8
		C503.1,512.8,503.1,512.8,503.1,512.8l-13.5,0c-9.6-0.6-20.5-2.4-32.4-5.4c-34.8-9.5-69.4-31-102.6-63.8
		c-40.1-40.6-56.3-77.7-62.8-101.7c0-0.1,0-0.1-0.1-0.2c-3.4-11.5-5.3-22.8-5.3-31.9v-14.1c0.2-0.6,0.5-1.4,0.8-2
		c0.1-0.2,0.2-0.4,0.3-0.6c0.7-1.5,2.5-4.4,6.1-8c6.9-6.9,16.2-10,27.8-9.3c0.1,0,0.2,0,0.3,0c0.3,0.1,0.8,0.6,1.3,1.3
		c0,0,0.1,0.1,0.1,0.1c3.6,5.3,8.7,13.4,15.1,23.6l4.6,7.3c0,0.1,0.1,0.1,0.1,0.2c4,6,4.4,14.3,1.1,21c-0.6,0.7-1.1,1.4-1.4,2.3
		l-4.2,10.1c-7.3,11.1-8.6,25.5-3.6,38.7c0,0.1,0.1,0.2,0.1,0.4c8.7,20,19.7,36.3,33.6,49.8c18.3,17.8,37.1,28,49.7,33.5
		c12.7,5.5,26.8,4.2,38.9-3.4l10.2-4.3c0.8-0.3,1.5-0.8,2.2-1.3c6.8-3.2,14.8-2.7,21.3,1.2c7,4.4,13.2,8.4,18.6,11.9
		c4.9,3.2,9.2,5.9,12.5,8c0.7,0.5,1.1,1,1.2,1.3c0,0,0,0,0,0c0.4,12.1-2.8,21.5-9.3,28c-3.6,3.6-6.6,5.4-8,6.1
		C505,512.2,503.9,512.6,503.1,512.8z"/>
	<path class="st0" d="M522.1,158.5L277.9,158c0,0,0,0,0,0c-65.9,0-119.6,53.7-119.6,119.6v244.7c0,65.9,53.7,119.6,119.6,119.6
		h244.2c65.9,0,119.6-53.7,119.6-119.6V278.1C641.7,212.2,588.1,158.5,522.1,158.5z M602.7,278.1v244.2c0,44.4-36.2,80.6-80.6,80.6
		H277.9c-44.4,0-80.6-36.2-80.6-80.6V278.1c0-45.2,35.4-80.6,80.6-80.6h244.2C566.5,197.6,602.7,233.7,602.7,278.1z"/>
</g>
</svg>
